<svg width="692" height="271" viewBox="0 0 692 271" fill="none" xmlns="http://www.w3.org/2000/svg">
<g opacity="0.2">
<path d="M609.789 200.334C608.628 200.818 607.454 201.267 606.276 201.691C605.234 202.032 604.108 202.137 603.049 201.891C601.986 201.67 601.021 201.127 600.245 200.432C599.455 199.71 598.937 198.861 598.549 197.844C598.105 196.82 597.647 195.806 597.165 194.799C596.994 194.438 596.574 194.249 596.182 194.375C595.756 194.512 595.518 194.971 595.655 195.403L595.669 195.448C596.095 196.781 596.612 198.216 596.99 199.454C597.319 200.65 597.238 201.937 596.822 203.108C596.389 204.276 595.567 205.304 594.511 205.988L590.834 208.057L590.799 208.078C590.526 208.233 590.4 208.569 590.515 208.867C590.645 209.197 591.012 209.362 591.34 209.232C592.655 208.72 593.997 208.106 595.27 207.633C596.536 207.219 597.965 207.212 599.245 207.71C600.528 208.183 601.643 209.113 602.322 210.305C602.961 211.533 603.514 212.89 604.101 214.181C604.199 214.398 604.447 214.518 604.681 214.448C604.94 214.37 605.087 214.1 605.013 213.841L604.999 213.792L603.811 209.727C603.528 208.482 603.598 207.177 604.031 205.974C604.475 204.781 605.251 203.691 606.317 202.898C607.45 202.144 608.733 201.411 609.936 200.664L609.957 200.65C610.03 200.604 610.062 200.509 610.027 200.425C609.988 200.338 609.883 200.295 609.789 200.334Z" fill="#FCFCFC"/>
<path d="M627.854 243.372C628.735 243.407 629.263 243.084 629.532 242.46C629.847 241.723 629.777 241.11 629.172 240.605C628.581 240.106 627.927 239.665 627.263 239.272C626.669 238.921 625.746 239.184 625.235 239.752C624.76 240.282 624.683 240.92 625.099 241.562C625.784 242.621 626.819 243.147 627.854 243.372Z" fill="#FCFCFC"/>
<path d="M643.551 227.307C643.726 227.3 643.904 227.307 644.079 227.289C645.169 227.17 645.991 226.469 646.187 225.49C646.292 224.96 646.19 224.483 645.736 224.161C645.369 223.898 644.988 223.624 644.572 223.459C644.271 223.34 643.872 223.305 643.561 223.393C642.806 223.603 642.296 224.143 641.918 224.82C641.548 225.476 641.631 226.069 642.061 226.633C642.425 227.121 642.946 227.303 643.551 227.307Z" fill="#FCFCFC"/>
<path d="M578.712 175.042C579.366 175.073 579.893 174.902 580.236 174.53C581.288 173.397 580.865 172.148 579.827 171.517C578.908 170.956 577.373 171.443 576.765 172.324C576.39 172.867 576.376 173.372 576.779 173.899C577.303 174.575 578.009 174.954 578.712 175.042Z" fill="#FCFCFC"/>
<path d="M661.776 54.0625C662.513 53.5785 662.762 53.0103 662.618 52.3439C662.45 51.5583 662.041 51.1023 661.255 51.0392C660.486 50.9761 659.699 50.9936 658.93 51.0602C658.245 51.1199 657.64 51.8704 657.553 52.628C657.469 53.3365 657.776 53.9012 658.486 54.1853C659.654 54.6483 660.8 54.4764 661.776 54.0625Z" fill="#FCFCFC"/>
<path d="M558.995 129.061C559.858 129.243 560.432 129.015 560.802 128.443C561.236 127.77 561.267 127.156 560.76 126.553C560.26 125.96 559.691 125.417 559.1 124.918C558.572 124.473 557.617 124.578 557.023 125.052C556.464 125.494 556.285 126.111 556.586 126.816C557.079 127.973 558.013 128.664 558.995 129.061Z" fill="#FCFCFC"/>
<path d="M522.409 78.0454C521.343 77.8349 520.623 78.2102 520.189 79.1081C519.808 79.9008 520.018 80.9039 520.679 81.43C521.721 82.2577 523.367 82.0578 524.164 81.0021C524.542 80.5005 524.584 79.9499 524.248 79.4132C523.79 78.6767 523.171 78.1471 522.409 78.0454Z" fill="#FCFCFC"/>
<path d="M552.72 217.479C553.373 217.511 553.901 217.339 554.244 216.967C555.296 215.831 554.873 214.586 553.835 213.955C552.915 213.393 551.381 213.881 550.772 214.761C550.398 215.305 550.384 215.81 550.786 216.336C551.311 217.016 552.017 217.395 552.72 217.479Z" fill="#FCFCFC"/>
<path d="M594.381 0C598.446 0 602.437 0.438011 606.328 1.68596C616.047 4.8034 623.361 11.0089 628.889 19.517C630.901 22.6124 632.443 25.9232 633.243 29.552C634.145 33.636 634.237 37.7616 633.541 41.8701C631.563 53.569 625.715 62.8944 616.365 70.0249C611.647 73.6219 606.427 76.1276 600.611 77.3046C596.846 78.0681 593.057 78.1611 589.239 77.7867C582.686 77.1456 576.577 75.1023 570.87 71.8381C565.463 68.7451 560.954 64.6538 557.63 59.3047C555.09 55.2183 553.669 50.7526 553.213 45.9614C552.554 39.0096 553.4 32.2633 556.081 25.8106C560.103 16.1353 566.901 9.09048 576.225 4.50976C579.12 3.08807 582.104 1.91598 585.299 1.35073C586.919 1.06444 588.512 0.609295 590.136 0.359705C591.535 0.144371 592.963 0.112561 594.381 0ZM580.424 4.53668C578.933 5.23162 577.435 5.85559 576.002 6.60681C567.306 11.168 561.032 17.9877 557.417 27.2078C555.128 33.0439 554.389 39.127 554.922 45.3741C555.322 50.0552 556.661 54.4255 559.148 58.414C562.101 63.1465 566.055 66.8512 570.773 69.7215C576.4 73.1472 582.485 75.2712 589.03 75.9833C593.043 76.4188 597.035 76.3038 600.987 75.4082C606.786 74.0942 611.931 71.4343 616.51 67.6538C625.938 59.87 631.442 49.9744 632.159 37.5805C632.423 33.0096 631.631 28.5953 629.621 24.4599C627.007 19.0741 623.373 14.4983 618.825 10.6345C610.859 3.86621 601.678 1.09135 591.353 1.98939C591.19 2.00407 591.03 2.06769 590.885 2.10439C590.696 3.19574 590.475 3.34501 589.457 3.09297C589.401 3.07829 589.35 3.05381 589.295 3.04158C588.167 2.80178 587.018 2.66719 585.93 3.09541C584.928 3.48693 583.98 4.02037 583.023 4.5171C582.62 4.72509 582.264 5.02362 581.866 5.24385C581.357 5.52525 581.045 5.44206 580.691 4.97713C580.611 4.86457 580.548 4.73978 580.424 4.53668Z" fill="#FCFCFC"/>
<path d="M588.598 67.1852C587.63 67.2207 586.606 67.0391 585.623 66.6113C584.307 66.0374 583.382 65.0669 582.754 63.7938C582.387 63.0466 582.371 62.2723 582.671 61.5126C583.243 60.0621 583.987 58.7264 585.323 57.8144C585.535 57.6704 585.742 57.5034 585.972 57.7205C586.234 57.9709 586.067 58.2109 585.886 58.4259C585.807 58.5177 585.721 58.6116 585.623 58.6805C584.584 59.3922 584.069 60.4796 583.564 61.5711C583.207 62.3412 583.291 63.0758 583.729 63.8084C584.628 65.3152 585.98 66.0916 587.68 66.2795C589.08 66.4339 590.459 66.2461 591.822 65.8913C592.94 65.5991 593.63 64.8916 593.995 63.8126C594.648 61.8862 594.302 60.0935 593.288 58.3946C592.664 57.3511 591.822 56.4996 590.839 55.792C590.052 55.2244 589.205 54.8946 588.231 55.3245C587.991 55.431 587.745 55.3934 587.709 55.1325C587.686 54.9677 587.826 54.6922 587.974 54.6108C588.581 54.2748 589.251 54.3019 589.904 54.4522C590.234 54.5273 590.568 54.6567 590.851 54.8383C593.267 56.3743 594.876 58.4614 595.166 61.3916C595.287 62.6104 595.026 63.7813 594.469 64.8728C593.97 65.8495 593.14 66.4255 592.105 66.7073C590.989 67.0078 589.854 67.1873 588.598 67.1852Z" fill="#FCFCFC"/>
<path d="M562.996 53.7054C563.042 52.3301 563.518 51.1718 564.356 50.1658C565.176 49.1828 566.242 49.2329 567.308 49.5647C567.438 49.6044 567.505 49.8486 567.601 49.9968C567.45 50.0886 567.304 50.2472 567.148 50.2597C566.912 50.2785 566.668 50.1909 566.428 50.1533C565.913 50.0761 565.429 50.1762 565.091 50.579C564.173 51.6727 563.655 52.9144 563.939 54.3649C564.189 55.6506 565.132 56.2036 566.388 55.8447C567.25 55.5984 567.92 55.0954 568.314 54.2731C568.462 53.9642 568.594 53.6491 568.713 53.3277C568.831 53.0084 568.932 52.6932 568.752 52.3384C568.696 52.2257 568.79 51.9607 568.902 51.8626C568.982 51.7916 569.234 51.8355 569.357 51.9106C569.656 52.0901 569.775 52.401 569.72 52.735C569.43 54.5027 568.533 56.1932 566.52 56.7045C564.78 57.147 563.328 56.164 563.061 54.3816C563.023 54.1416 563.013 53.8954 562.996 53.7054Z" fill="#FCFCFC"/>
<path d="M565.346 28.7192C565.004 28.7338 564.812 28.4876 564.925 28.2246C565.021 28.0054 565.175 27.8072 565.325 27.6173C566.723 25.8704 568.34 24.3469 570.078 22.9506C571.203 22.049 572.363 21.1891 573.514 20.3251C573.746 20.1498 574.007 19.9974 574.278 19.9014C574.395 19.8597 574.637 19.9453 574.703 20.0475C574.766 20.1477 574.714 20.3689 574.641 20.4942C574.574 20.6089 574.409 20.6632 574.29 20.7488C571.497 22.7419 568.849 24.8999 566.563 27.4732C566.271 27.803 565.993 28.1453 565.695 28.4667C565.584 28.5836 565.43 28.6608 565.346 28.7192Z" fill="#FCFCFC"/>
<path d="M567.983 41.0613C568.116 40.8338 568.187 40.6418 568.319 40.5124C568.404 40.4268 568.596 40.3747 568.707 40.4101C568.815 40.4456 568.93 40.6021 568.955 40.7253C569.084 41.3764 568.463 42.0151 567.808 41.8752C567.507 41.8105 567.207 41.6582 566.956 41.4745C565.932 40.7253 565.129 39.7631 564.57 38.6341C563.723 36.9206 564.862 34.5768 566.735 34.1511C567.144 34.0592 567.603 34.1469 568.031 34.2095C568.2 34.2346 568.385 34.3932 568.488 34.5434C568.565 34.6561 568.588 34.8962 568.517 34.9984C568.45 35.0965 568.177 35.1737 568.087 35.1153C567.136 34.508 566.454 35.0151 565.836 35.6621C565.162 36.3696 564.86 37.2232 565.3 38.1519C565.819 39.2497 566.587 40.168 567.589 40.8735C567.684 40.9423 567.803 40.9778 567.983 41.0613Z" fill="#FCFCFC"/>
<path d="M574.063 56.7065C574.136 55.7423 574.722 54.8908 575.7 54.2939C575.819 54.2209 575.984 54.1666 576.115 54.1854C576.239 54.2021 576.405 54.3002 576.447 54.4066C576.489 54.511 576.428 54.6863 576.357 54.7948C576.297 54.8866 576.145 54.9117 576.055 54.991C575.815 55.1976 575.552 55.3875 575.362 55.6338C574.59 56.6314 574.693 57.4767 575.709 58.2071C576.159 58.5306 576.668 58.7936 577.186 58.9939C577.753 59.2131 578.006 59.0398 578.135 58.4534C578.187 58.2155 578.152 57.9525 578.233 57.7313C578.289 57.5831 578.469 57.4287 578.621 57.3911C578.707 57.3702 578.924 57.5685 578.953 57.6979C579.099 58.3449 579.024 58.9814 578.584 59.4969C578.175 59.9748 577.62 60.0208 577.036 59.8559C576.042 59.5741 575.214 59.0294 574.534 58.2635C574.186 57.869 574.06 57.4433 574.063 56.7065Z" fill="#FCFCFC"/>
<path d="M603.836 66.878C603.709 66.8029 603.557 66.7674 603.519 66.6797C603.469 66.5629 603.457 66.3813 603.517 66.279C603.599 66.1392 603.761 66.0495 603.891 65.9388C605.243 64.7805 606.626 63.6535 607.934 62.4493C608.629 61.8107 609.198 61.0343 609.82 60.3163C609.995 60.1139 610.145 59.8885 610.321 59.6881C610.483 59.5003 610.723 59.4231 610.896 59.6067C610.994 59.7111 610.967 59.9511 610.959 60.1264C610.955 60.212 610.876 60.2996 610.815 60.3769C610.273 61.0656 609.805 61.8378 609.169 62.4243C607.663 63.8121 606.079 65.1145 604.521 66.4418C604.316 66.6109 604.072 66.7278 603.836 66.878Z" fill="#FCFCFC"/>
<path d="M591.402 58.6509C591.302 59.9323 590.874 61.3244 590.106 62.5954C589.576 63.472 588.544 63.8226 587.701 63.4991C586.937 63.2069 586.537 62.5161 586.704 61.7627C586.735 61.6249 586.785 61.4642 586.881 61.3745C586.971 61.2931 587.144 61.2534 587.267 61.2743C587.35 61.2889 587.434 61.4329 587.473 61.5352C587.505 61.6187 587.471 61.7251 587.469 61.8232C587.448 62.585 587.995 62.9857 588.708 62.7248C589.094 62.5829 589.353 62.299 589.535 61.9359C590.006 60.9905 590.348 60.0012 590.503 58.9556C590.563 58.5507 590.615 58.1395 590.346 57.7555C590.282 57.6637 590.334 57.3694 590.419 57.3193C590.557 57.2421 590.793 57.2317 590.943 57.2964C591.289 57.4467 591.408 57.8056 591.402 58.6509Z" fill="#FCFCFC"/>
<path d="M558.312 44.3064C558.529 42.906 558.711 41.4994 558.974 40.1073C559.218 38.8112 559.546 37.5319 559.848 36.2484C559.909 35.9896 559.99 35.7182 560.134 35.5012C560.217 35.3739 560.445 35.3426 560.607 35.2695C560.678 35.4323 560.82 35.6014 560.806 35.7558C560.783 36.0167 560.632 36.2651 560.582 36.5259C560.178 38.661 559.781 40.7981 559.385 42.9353C559.291 43.4403 559.218 43.9475 559.126 44.4525C559.08 44.7072 558.986 44.9367 558.676 44.9388C558.444 44.9388 558.338 44.7239 558.312 44.3064Z" fill="#FCFCFC"/>
<path d="M590.519 72.4006C589.161 72.2441 587.803 72.1042 586.449 71.9247C585.894 71.8517 585.65 71.6179 585.76 71.3633C585.94 70.9543 586.305 71.1233 586.597 71.1692C588.316 71.4406 590.044 71.5491 591.784 71.451C592.608 71.4051 593.369 71.1859 594.058 70.7247C594.316 70.5515 594.588 70.2906 594.884 70.6454C595.055 70.8499 594.915 71.1233 594.523 71.4197C593.774 71.9832 592.91 72.2253 591.994 72.2879C591.508 72.3213 591.018 72.2942 590.53 72.2942C590.526 72.3275 590.523 72.363 590.519 72.4006Z" fill="#FCFCFC"/>
<path d="M558.483 51.3191C558.467 51.125 558.441 50.9309 558.435 50.7347C558.427 50.4634 558.406 50.1462 558.769 50.1086C559.136 50.071 559.18 50.3799 559.209 50.6554C559.27 51.2377 559.301 51.8241 559.387 52.4023C559.554 53.5105 559.739 54.6187 559.939 55.7207C560.096 56.5784 560.434 57.3527 561.074 57.9726C561.16 58.0561 561.262 58.1583 561.279 58.2648C561.3 58.3921 561.281 58.5757 561.2 58.6571C561.12 58.7385 560.92 58.7803 560.812 58.7385C560.636 58.6717 560.478 58.5382 560.338 58.4067C559.752 57.8515 559.378 57.1628 559.234 56.3802C558.926 54.7022 558.663 53.0158 558.379 51.3337C558.419 51.3295 558.452 51.3253 558.483 51.3191Z" fill="#FCFCFC"/>
<path d="M576.423 45.8501C575.002 45.8438 574.399 44.9276 575.002 43.7818C575.244 43.3227 575.643 42.9261 576.033 42.5713C576.229 42.3918 576.563 42.323 576.844 42.2937C576.982 42.2791 577.143 42.4732 577.291 42.5734C577.191 42.7195 577.113 42.9616 576.986 42.9929C576.381 43.1411 576.01 43.5355 575.747 44.0552C575.413 44.7147 575.628 45.0382 576.362 44.9944C576.529 44.9839 576.705 44.9464 576.857 44.8775C577.245 44.7043 577.332 44.5206 577.218 44.0761C577.155 43.8382 577.124 43.5898 577.389 43.5335C577.56 43.4959 577.819 43.5919 577.958 43.7171C578.276 44.001 578.292 44.5164 578.036 44.9359C577.639 45.5788 577.028 45.8313 576.423 45.8501Z" fill="#FCFCFC"/>
<path d="M569.606 65.9961C569.731 66.0691 569.846 66.1171 569.938 66.1923C571.455 67.4028 573.151 68.3252 574.864 69.2143C575.035 69.304 575.224 69.3959 575.343 69.5399C575.433 69.6484 575.504 69.9051 575.441 69.9761C575.339 70.095 575.131 70.1389 574.957 70.1744C574.878 70.189 574.778 70.1117 574.69 70.0658C572.973 69.1809 571.288 68.2418 569.765 67.0417C569.594 66.906 569.416 66.762 569.297 66.5846C569.235 66.4907 569.253 66.2987 569.306 66.1818C569.347 66.0963 569.498 66.0608 569.606 65.9961Z" fill="#FCFCFC"/>
<path d="M596.883 55.366C597.434 55.1552 597.616 54.7586 597.695 54.3225C597.768 53.9217 597.418 53.5356 596.961 53.4688C596.771 53.4417 596.56 53.5085 596.381 53.4563C596.22 53.4104 596.093 53.2581 595.949 53.1516C596.057 53.0097 596.137 52.7989 596.28 52.7384C597.163 52.3627 598.302 53.0181 598.482 53.9802C598.613 54.6877 598.125 55.7103 597.495 56.0505C597.038 56.2968 596.468 56.2279 596.176 55.8105C595.974 55.5204 595.834 55.1635 595.757 54.815C595.723 54.6606 595.867 54.3767 596.011 54.2932C596.249 54.1576 596.401 54.3809 596.504 54.5917C596.625 54.8442 596.75 55.0947 596.883 55.366Z" fill="#FCFCFC"/>
<path d="M566.4 53.6532C566.646 53.3986 566.919 53.1607 567.134 52.8789C567.372 52.5701 567.449 52.2194 567.193 51.8646C567.036 51.6476 566.944 51.4034 567.199 51.2218C567.47 51.0298 567.712 51.1843 567.9 51.4055C568.211 51.7686 568.282 52.1986 568.159 52.6452C567.954 53.3903 567.46 53.935 566.811 54.3127C566.227 54.6508 565.459 54.246 565.261 53.551C565.088 52.9436 565.444 51.9899 565.997 51.6914C566.135 51.6163 566.35 51.6831 566.529 51.6831C566.523 51.8605 566.569 52.0587 566.502 52.2069C566.406 52.424 566.204 52.593 566.095 52.8059C565.92 53.1544 565.958 53.2296 566.4 53.6532Z" fill="#FCFCFC"/>
<path d="M577.981 29.6528C577.833 28.9307 577.461 28.3421 576.992 27.8099C576.671 27.4447 576.281 27.4489 575.859 27.6325C575.6 27.7452 575.308 27.9477 575.108 27.5574C574.983 27.3132 575.173 27.0774 575.621 26.8937C576.222 26.6495 576.838 26.6182 577.347 27.0565C578.121 27.7244 578.644 28.578 578.818 29.5965C578.941 30.3228 578.484 30.7402 577.793 30.5941C577.545 30.5419 577.305 30.448 577.288 30.1537C577.269 29.8386 577.486 29.7446 577.762 29.73C577.827 29.7238 577.891 29.6841 577.981 29.6528Z" fill="#FCFCFC"/>
<g opacity="0.4">
<path d="M548.987 72C549.699 72.1157 551.12 72.3321 552.537 72.5871C553.189 72.7045 553.807 72.9427 554.498 72.8924C554.859 72.8655 555.298 73.0685 555.614 73.3016C558.125 75.1787 560.467 77.2368 561.76 80.3534C562.784 82.8511 563.259 85.4175 562.859 88.113C562.68 89.3224 562.312 90.4379 561.767 91.4762C559.17 96.4396 555.276 99.2006 550.074 99.828C547.728 100.1 545.376 100.147 543.019 99.2325C538.842 97.6423 535.702 94.8729 534.07 90.4983C533.822 89.8391 533.667 89.143 533.533 88.4603C533.341 87.484 533.158 86.5011 533.068 85.5215C533 84.7683 532.82 83.9447 533.588 83.4079C533.78 83.2738 533.793 82.888 533.875 82.6129C535.663 76.5139 541.724 72.0252 548.987 72ZM545.626 73.5482C545.371 73.5835 545.206 73.5767 545.065 73.6304C543.926 74.0649 542.786 74.4926 541.663 74.9489C540.414 75.4537 539.697 76.5239 539.002 77.584C538.794 77.9011 538.677 78.2986 538.589 78.6777C538.35 79.711 538.652 80.5111 539.566 81.1351C540.094 81.4974 540.681 81.7792 541.261 82.0493C542.574 82.6682 543.563 83.631 544.171 84.9763C544.453 85.602 544.681 86.2595 544.856 86.9204C545.456 89.195 546.138 89.7066 548.313 89.5388C549.472 89.4482 550.64 89.3694 551.809 89.4147C554.484 89.5187 556.648 91.5819 557.171 94.4452C557.238 94.8159 557.251 95.1866 556.858 95.304C556.473 95.4181 556.256 95.1346 556.111 94.7706C555.848 94.1114 555.598 93.4472 555.314 92.798C554.954 91.9794 554.363 91.4628 553.587 91.0887C552.439 90.5369 551.285 90.5788 550.122 90.6241C549.185 90.661 548.253 90.7684 547.315 90.7533C545.83 90.7298 544.661 89.8273 544.1 88.3479C543.976 88.0275 543.885 87.692 543.813 87.3565C543.361 85.2296 542.291 83.6612 540.224 82.8142C538.495 82.1147 537.334 80.9053 537.37 78.8974C537.37 78.879 537.33 78.8572 537.247 78.7783C537.089 78.9578 536.912 79.1222 536.774 79.3168C535.548 81.0495 534.817 82.9869 534.563 85.1256C534.38 86.6772 534.675 87.2475 536.094 88.0627C536.504 88.2992 536.937 88.4955 537.37 88.6716C537.96 88.9115 538.56 89.1228 539.161 89.3325C540.314 89.7384 541.231 90.458 541.889 91.55C542.191 92.0549 542.524 92.543 542.844 93.0395C543.374 93.8648 544.086 94.2842 545.006 94.358C545.91 94.4301 546.817 94.5626 547.72 94.7052C548.937 94.8998 549.694 95.8089 550.34 96.8506C550.527 97.1525 550.512 97.4762 550.24 97.6725C549.962 97.8721 549.692 97.7362 549.47 97.4595C549.317 97.2682 549.172 97.0703 549.024 96.8741C548.582 96.287 548.048 95.9045 547.347 95.8341C546.573 95.7552 545.798 95.6143 545.026 95.5523C543.731 95.4483 542.704 94.8377 541.946 93.6669C541.586 93.115 541.223 92.5648 540.874 92.0063C540.472 91.3672 539.949 90.8673 539.276 90.6023C537.754 90.0085 536.195 89.5288 534.715 88.4519C534.76 88.7689 534.77 88.9299 534.808 89.0859C535.725 92.8148 538.074 95.4164 541.358 97.2565C543.838 98.6739 546.407 98.9406 549.022 98.7175C553.654 98.3082 557.45 96.3323 560.028 92.0817C561.433 89.7602 561.433 90.302 560.157 87.5142C560.142 87.4823 560.125 87.4505 560.11 87.4186C559.84 86.8315 559.412 86.392 558.835 86.2964C558.031 86.1639 557.215 86.1287 556.404 86.1102C555.719 86.0935 555.038 86.1857 554.353 86.1773C553.222 86.1639 552.371 85.5449 551.882 84.4832C551.597 83.8676 551.449 83.1547 551.382 82.4787C551.124 79.8301 550.229 79.0182 548.527 78.572C547.612 78.3338 546.777 77.8608 546.108 77.1261C545.38 76.331 545.085 75.4336 545.408 74.3903C545.481 74.1487 545.536 73.8988 545.626 73.5482ZM546.878 73.3201C546.77 73.7042 546.708 73.9994 546.607 74.2796C546.178 75.442 546.362 76.1448 547.437 76.7973C548.065 77.1815 548.775 77.4448 549.474 77.6646C550.689 78.0487 551.546 78.8354 551.987 80.0548C552.244 80.7694 552.424 81.5326 552.504 82.2858C552.742 84.5133 553.282 85.0518 555.346 84.9528C556.194 84.9109 557.043 84.7834 557.891 84.8337C559.357 84.9226 560.58 85.5449 561.25 87.12C561.333 87.3163 561.488 87.4773 561.714 87.8044C561.772 87.3381 561.825 87.068 561.839 86.7946C561.93 84.7616 561.513 82.8276 560.753 80.9489C559.558 78.0285 557.355 76.1281 555.031 74.35C554.793 74.1689 554.494 74.033 554.206 73.976C553.062 73.7495 551.916 73.5449 550.764 73.3671C549.474 73.1725 548.178 72.988 546.878 73.3201Z" fill="#FCFCFC"/>
</g>
<path d="M231.664 70.4157C230.916 69.623 230.111 69.5143 229.241 69.9948C228.472 70.4192 228.066 71.3592 228.3 72.1729C228.671 73.453 230.132 74.2457 231.391 73.8459C231.989 73.6565 232.338 73.2321 232.373 72.5972C232.422 71.7309 232.227 70.9418 231.664 70.4157Z" fill="#FCFCFC"/>
<path d="M141.776 74.3321C142.513 73.8481 142.762 73.2799 142.618 72.6135C142.45 71.8278 142.041 71.3719 141.255 71.3087C140.486 71.2456 139.699 71.2631 138.93 71.3298C138.245 71.3894 137.64 72.14 137.553 72.8976C137.469 73.606 137.776 74.1707 138.486 74.4548C139.654 74.9178 140.8 74.7459 141.776 74.3321Z" fill="#FCFCFC"/>
<path d="M79.9502 64.2045C79.0447 64.8113 78.8035 65.5864 79.1321 66.5299C79.4223 67.3611 80.2753 67.9223 81.1144 67.8241C82.4359 67.6733 83.4567 66.358 83.2784 65.0498C83.191 64.4255 82.8344 64.0081 82.2191 63.8678C81.3696 63.6749 80.562 63.738 79.9502 64.2045Z" fill="#FCFCFC"/>
<path d="M38.9949 149.332C39.8584 149.515 40.4318 149.287 40.8023 148.715C41.2359 148.041 41.2673 147.428 40.7604 146.824C40.2605 146.232 39.6906 145.688 39.0998 145.19C38.5719 144.745 37.6175 144.85 37.0231 145.323C36.4638 145.765 36.2855 146.382 36.5861 147.087C37.0791 148.245 38.0125 148.936 38.9949 149.332Z" fill="#FCFCFC"/>
<path d="M2.40929 98.3149C1.343 98.1044 0.622821 98.4797 0.189314 99.3776C-0.191753 100.17 0.0180067 101.173 0.678756 101.699C1.72057 102.527 3.3672 102.327 4.16429 101.272C4.54187 100.77 4.58382 100.219 4.2482 99.6828C3.79022 98.9462 3.17142 98.4166 2.40929 98.3149Z" fill="#FCFCFC"/>
<path d="M150.005 84.9713C149.68 82.2234 147.216 79.0278 142.658 75.5117C140.382 71.5834 135.957 67.2333 130.205 63.2442C128.387 61.9916 126.443 60.7854 124.423 59.641C124.023 57.6314 123.32 56.0665 121.128 54.4473C120.77 52.8732 120.118 51.521 118.6 50.2176C118.511 50.1344 118.414 50.0771 118.351 50.0017C118.189 48.1484 116.739 44.0181 107.818 41.3296C98.8963 38.641 95.4493 41.2674 94.2997 42.7536C94.1801 42.7739 94.0681 42.7683 93.9745 42.7965C92.0309 43.0284 90.7258 43.7911 89.5637 44.9351C86.8514 45.0764 85.4145 45.9966 83.9888 47.456C81.6521 47.2875 79.3968 47.2281 77.1968 47.27C70.2195 47.4228 64.1573 48.6126 60.1208 50.6385C54.4262 51.0651 50.6377 52.3481 48.8488 54.4592C48.7323 54.565 48.4088 54.8905 48.294 55.2788C47.8042 56.9356 50.0702 59.1691 55.1995 62.0963C59.8192 64.729 66.5425 67.7419 74.6099 70.8215C74.965 71.8307 75.63 72.8488 76.5096 73.6213L76.5019 73.6472C75.3846 77.4268 81.0436 80.9648 94.8695 85.1313C108.878 89.3528 115.334 89.5221 116.466 85.6908L116.474 85.6649C117.629 85.5055 118.738 85.022 119.583 84.3744C128.002 86.2632 135.261 87.464 140.554 87.8186C146.426 88.2347 149.534 87.6206 150.031 85.9379C150.115 85.6532 150.037 85.1502 150.005 84.9713ZM108.961 44.3808C109.015 44.1996 109.244 44.0993 109.452 44.1622C109.661 44.2251 109.798 44.4354 109.744 44.6166C109.69 44.7978 109.462 44.8981 109.253 44.8352C109.045 44.7724 108.908 44.562 108.961 44.3808ZM142.11 78.6168C141.715 78.4134 141.321 78.21 140.927 78.0065L140.908 77.9728C140.46 77.4711 139.985 76.9617 139.529 76.4859C138.565 75.5187 137.56 74.5954 136.547 73.698C137.642 74.5076 138.731 75.3431 139.778 76.2224C140.301 76.6621 140.817 77.1277 141.307 77.5854C141.681 77.952 142.056 78.3187 142.415 78.7371C142.285 78.6978 142.18 78.6663 142.11 78.6168ZM133.718 69.7161C133.392 69.2796 133.033 68.8612 132.64 68.4609C131.788 67.4992 130.861 66.5995 129.933 65.6998C130.943 66.5117 131.953 67.3236 132.888 68.1974C133.352 68.6472 133.816 69.0971 134.272 69.5728C134.531 69.8484 134.783 70.1498 135.035 70.4512C134.622 70.214 134.157 69.9611 133.718 69.7161ZM140.414 73.8768C139.868 73.5148 139.348 73.1606 138.801 72.7986C138.568 72.5309 138.36 72.2711 138.119 72.0293C137.501 71.3354 136.841 70.6853 136.18 70.0353C135.513 69.4111 134.819 68.7791 134.117 68.173C131.374 65.8238 128.401 63.7719 125.288 61.9035C125.469 62.1555 125.651 62.4075 125.824 62.6853C126.197 63.2489 126.563 63.8383 126.928 64.4278C127.268 65.0094 127.626 65.6247 127.898 66.2424C127.525 65.6788 127.118 65.1333 126.677 64.6057C126.236 64.0782 125.822 63.5586 125.347 63.0491C124.899 62.5475 124.417 62.0639 123.935 61.5803C123.49 61.1642 123.07 60.7559 122.61 60.3916C121.899 60.0083 121.163 59.6171 120.418 59.2518C122.294 60.6911 123.932 63.6092 124.738 65.2056C124.467 65.0674 124.161 64.9471 123.889 64.8089C123.216 64.4931 122.534 64.2032 121.853 63.9132C121.537 62.0983 120.046 59.6471 118.788 58.4223C117.519 57.8143 116.242 57.2322 114.958 56.6759C114.407 56.4253 113.822 56.1927 113.264 55.968C113.282 56.0018 113.308 56.0096 113.353 56.0512C112.995 55.9153 112.63 55.8052 112.265 55.6952C111.229 55.3548 110.159 55.0325 109.116 54.7181C110.129 55.1361 111.134 55.58 112.139 56.0238C112.865 56.3554 113.591 56.6869 114.283 57.0365C114.409 57.1872 114.517 57.3041 114.616 57.447C113.998 57.2324 113.38 57.0179 112.753 56.8292C111.718 56.4889 110.674 56.1744 109.605 55.8521C110.617 56.2701 111.623 56.714 112.628 57.1579C113.51 57.5366 114.385 57.9412 115.226 58.3638C115.281 58.465 115.337 58.5663 115.392 58.6675C114.669 58.4215 113.965 58.2093 113.268 57.9711C112.225 57.6567 111.189 57.3163 110.145 57.0019C111.158 57.4199 112.137 57.8559 113.143 58.2998C114.025 58.6785 114.9 59.0831 115.775 59.4877C115.804 59.581 115.859 59.6823 115.888 59.7757L110.653 58.1697L116.096 60.5149C116.125 60.6083 116.128 60.6938 116.15 60.8131L111.167 59.3116L116.216 61.4533C116.227 61.513 116.238 61.5726 116.223 61.6244L115.176 61.2244C114.766 61.0728 114.33 60.9132 113.913 60.7874L113.268 60.565L112.658 60.3246L111.402 59.8617C110.557 59.5505 109.711 59.2393 108.892 58.936C107.193 58.3395 105.52 57.7508 103.791 57.2579C104.644 57.5432 105.482 57.8803 106.302 58.1836C107.14 58.5207 107.959 58.824 108.789 59.187C109.627 59.5241 110.439 59.8533 111.277 60.1904L112.517 60.705L113.154 60.9533L113.757 61.2197C115.399 61.9119 117.041 62.6041 118.683 63.2963C120.317 64.0143 121.952 64.7324 123.571 65.5023C125.19 66.2722 126.775 67.06 128.353 67.8738C129.931 68.6876 131.501 69.5273 133.056 70.4187C134.61 71.3101 136.131 72.2196 137.637 73.1808C139.143 74.1421 140.607 75.1472 141.996 76.2143C144.908 78.4733 146.981 80.5922 148.091 82.5057C147.958 82.3809 147.843 82.2898 147.701 82.1909C147.356 81.9176 147.029 81.6781 146.684 81.4049C146.277 80.8593 145.828 80.3577 145.354 79.8482C143.808 78.2546 142.044 76.8208 140.198 75.4749C138.343 74.1549 136.406 72.9228 134.454 71.7424C133.417 71.1196 132.364 70.5485 131.292 69.9438C131.6 70.3464 131.899 70.775 132.198 71.2036C132.609 71.8346 133.019 72.4657 133.421 73.1227C133.76 73.7042 134.1 74.2858 134.406 74.8855C134.38 74.8776 134.38 74.8776 134.353 74.8697C133.973 74.3321 133.592 73.7944 133.196 73.3085C132.744 72.7213 132.259 72.1522 131.74 71.6011C131.247 71.0579 130.728 70.5068 130.202 69.9816C129.693 69.4901 129.185 68.9986 128.628 68.577C128.558 68.5275 128.479 68.5039 128.409 68.4545C127.568 68.0318 126.701 67.6014 125.859 67.1788C127.686 68.6878 129.273 71.3933 130.187 73.1066C129.174 72.6886 128.128 72.2887 127.107 71.8966C126.728 70.0062 125.292 67.6563 123.969 66.2707C121.3 65.0153 118.608 63.8376 115.867 62.7297C115.841 62.7218 115.815 62.714 115.789 62.7061C115.066 62.4601 114.317 62.2062 113.587 61.9861C114.566 62.4222 115.538 62.8841 116.475 63.364C117.141 63.7057 117.8 64.0733 118.466 64.415C118.51 64.4566 118.555 64.4982 118.599 64.5398C117.057 63.9905 115.507 63.467 113.968 63.0032C115.882 63.8337 117.739 64.7598 119.588 65.7118C118.892 65.4737 118.221 65.2434 117.517 65.0311C116.455 64.6829 115.385 64.3606 114.316 64.0383C115.347 64.49 116.352 64.9339 117.376 65.4116C118.329 65.8397 119.274 66.2938 120.186 66.7659C119.437 66.512 118.707 66.2919 117.95 66.0639L114.689 65.0813L117.835 66.4522C118.84 66.8961 119.846 67.34 120.843 67.8098C120.035 67.5661 119.226 67.3224 118.409 67.1046C117.28 66.7924 116.184 66.4623 115.063 66.1242C116.12 66.5838 117.211 67.0254 118.269 67.485C119.255 67.8952 120.242 68.3053 121.221 68.7413L121.24 68.7751C120.423 68.5573 119.641 68.3214 118.851 68.1115C117.695 67.7915 116.566 67.4793 115.418 67.1334C116.501 67.6009 117.619 68.0504 118.71 68.4919C119.626 68.8526 120.542 69.2133 121.45 69.5998C121.469 69.6336 121.461 69.6595 121.472 69.7191C119.189 68.89 116.897 68.0868 114.617 67.3432C112.519 66.6547 110.448 65.974 108.335 65.3372C107.291 65.0228 106.222 64.7005 105.178 64.386C104.127 64.0975 103.058 63.7751 101.999 63.5125C106.138 64.9852 110.31 66.44 114.479 67.8092L115.254 68.0709L116.022 68.3585L117.564 68.9079C118.592 69.2741 119.613 69.6662 120.659 70.0662C122.7 70.8504 124.767 71.6425 126.793 72.4785C130.844 74.1506 134.88 75.8743 138.814 77.8491C139.804 78.3448 140.76 78.8585 141.716 79.3722C142.672 79.8859 143.621 80.4255 144.554 81.0168C145.461 81.6003 146.36 82.2097 147.211 82.8889C147.619 83.2375 148.028 83.5861 148.376 83.9448C148.725 84.3036 149.024 84.7322 149.167 85.1136C149.192 85.3184 149.227 85.5828 149.204 85.6605C149.105 85.997 148.467 86.9044 144.325 86.9813C144.931 86.8537 145.503 86.7442 146.083 86.6088C146.39 86.5321 146.663 86.4734 146.969 86.3967C147.123 86.3583 147.25 86.3121 147.377 86.2659C147.505 86.2197 147.658 86.1813 147.759 86.1273C148.014 86.0348 148.25 85.9086 148.426 85.7926C148.502 85.7307 148.577 85.6687 148.618 85.6248C148.66 85.5809 148.675 85.5291 148.682 85.5033C148.682 85.5033 148.682 85.5033 148.69 85.4774C148.69 85.4774 148.69 85.4774 148.698 85.4515C148.698 85.4515 148.698 85.4515 148.705 85.4256C148.705 85.4256 148.705 85.4256 148.713 85.3997L148.721 85.3738C148.721 85.3738 148.728 85.3479 148.702 85.3401C148.71 85.3142 148.692 85.2804 148.673 85.2467C148.662 85.187 148.625 85.1195 148.589 85.0521C148.533 84.9508 148.46 84.8158 148.378 84.7067C148.071 84.304 147.652 83.8958 147.199 83.5056C146.286 82.751 145.237 82.0686 144.155 81.4042C142.01 80.1091 139.74 78.9458 137.455 77.8342C135.169 76.7227 132.835 75.6809 130.46 74.6831C129.272 74.1842 128.11 73.6931 126.915 73.2201C125.719 72.747 124.531 72.2481 123.354 71.8088C120.963 70.8628 118.557 69.9685 116.143 69.1001C111.316 67.3633 106.442 65.7818 101.519 64.2701C96.615 62.7922 91.6464 61.4358 86.6733 60.1909C84.1829 59.5814 81.6849 58.9977 79.1792 58.44C77.9225 58.1741 76.6658 57.9081 75.4091 57.6422C74.1524 57.3763 72.8881 57.1362 71.6499 56.904C69.1473 56.4318 66.6294 56.0113 64.0962 55.6427C62.8427 55.4623 61.5815 55.3077 60.3203 55.1532C59.0591 54.9987 57.8087 54.9038 56.5506 54.8348C55.2925 54.7658 54.0529 54.7306 52.8348 54.8146C52.2258 54.8566 51.6428 54.9065 51.0891 55.0497C50.816 55.1084 50.5691 55.175 50.3406 55.2753C50.247 55.3035 50.1719 55.3654 50.0783 55.3936C49.9771 55.4477 49.902 55.5096 49.8606 55.5535C49.8529 55.5794 49.8192 55.5974 49.8192 55.5974C49.8115 55.6233 49.7854 55.6155 49.8115 55.6233C49.8039 55.6492 49.8039 55.6492 49.7886 55.701C49.7809 55.7269 49.7917 55.7865 49.8209 55.8799C49.824 55.9654 49.8793 56.0667 49.9085 56.1601C50.096 56.5831 50.4661 57.0611 50.8438 57.5133C51.2476 57.9733 51.6514 58.4333 52.1074 58.909C52.1259 58.9428 52.1704 58.9844 52.1965 58.9923C49.2463 56.8627 49.1827 55.8285 49.2821 55.492C49.3204 55.3626 49.4936 55.161 49.5764 55.0732C49.6929 54.9673 49.8279 54.8952 49.9966 54.8051C50.1576 54.7408 50.3263 54.6507 50.5135 54.5943C50.8877 54.4816 51.2543 54.3947 51.647 54.3157C52.4247 54.1835 53.2578 54.1526 54.0647 54.1139C55.6971 54.0701 57.351 54.1456 58.9895 54.2729C60.6281 54.4002 62.2775 54.5871 63.9192 54.7999C65.5609 55.0127 67.195 55.2514 68.8475 55.5238C72.1264 56.0609 75.3747 56.7014 78.6414 57.3757C81.9005 58.0759 85.1259 58.7942 88.3696 59.5462C85.1718 58.6389 81.9586 57.7833 78.7225 57.0055C75.4864 56.2276 72.2273 55.5274 68.9453 54.9048C68.8072 54.8914 68.6507 54.8443 68.5126 54.8308C68.5202 54.8049 68.554 54.7869 68.5693 54.7351L77.7997 55.9943L69.1258 54.198L69.1595 54.18C69.962 54.2526 70.7828 54.359 71.5776 54.4576L74.2565 54.8138C76.0363 55.04 77.8085 55.2921 79.5883 55.5183C77.813 55.1807 76.0714 54.8251 74.2962 54.4874L71.6632 53.9759C71.2305 53.9019 70.8054 53.802 70.3988 53.7358C71.235 53.7905 72.0559 53.8969 72.9105 53.9852C73.8433 54.0972 74.8023 54.217 75.7351 54.329L81.3768 55.0424L75.7748 54.0026C74.8311 53.831 73.9136 53.6673 72.9699 53.4957C72.5894 53.4374 72.2089 53.3791 71.81 53.2871C72.594 53.326 73.3964 53.3986 74.1912 53.4972C75.1838 53.599 76.1765 53.7008 77.1953 53.8104C79.173 54.0399 81.1768 54.2772 83.1806 54.5146C81.2151 54.1478 79.2419 53.8069 77.2426 53.4582C76.2468 53.2709 75.2694 53.1173 74.2659 52.9559C73.9115 52.9054 73.5571 52.855 73.2027 52.8046C73.9606 52.8356 74.7369 52.9004 75.4872 52.9574C76.5397 53.049 77.5845 53.1665 78.637 53.2581C80.7267 53.4932 82.8425 53.7361 84.9322 53.9711C82.8547 53.5988 80.7695 53.2523 78.6843 52.9059C77.845 52.7657 77.0057 52.6256 76.1588 52.5113C76.0729 52.5136 75.9946 52.49 75.9425 52.4743C73.6625 52.2101 71.3856 52.0315 69.0935 51.9046C68.8956 51.9013 68.6716 51.8902 68.4737 51.887C66.768 52.2751 64.0114 52.8541 62.0393 53.9514C61.0281 53.8159 60.0094 53.7062 59.0167 53.6044C61.5259 52.6126 64.4236 52.1325 66.1019 51.9334C64.8024 51.9084 63.4953 51.9092 62.199 51.9696C59.9239 52.0734 57.6703 52.2965 55.5121 52.7738C54.8126 52.9296 54.1239 53.1449 53.4613 53.3682C52.886 53.3921 52.303 53.442 51.7201 53.4919C53.6954 52.4801 56.6129 51.8369 60.3009 51.5668C63.0884 51.3636 65.8668 51.3833 68.682 51.4705L69.7238 51.5025L70.7839 51.5682L71.8441 51.6339L72.8966 51.7256L73.9491 51.8172L75.0016 51.9088L76.0541 52.0005L77.099 52.118L78.1438 52.2355L79.1887 52.353C79.8715 52.446 80.588 52.521 81.2708 52.6139C81.9796 52.7148 82.6624 52.8078 83.3712 52.9086C84.0801 53.0095 84.7629 53.1024 85.4641 53.2292C88.232 53.6686 91.0108 54.1677 93.7742 54.7185C91.0567 54.0123 88.2901 53.376 85.5267 52.8251C84.8331 52.6725 84.1243 52.5717 83.4568 52.4269C82.7556 52.3002 82.0805 52.1813 81.3793 52.0546C80.6781 51.9278 79.9953 51.8349 79.2864 51.734L78.2492 51.5906L77.947 51.5559C77.9623 51.5041 77.996 51.4861 78.0374 51.4422C78.2538 51.4792 78.4517 51.4825 78.668 51.5195L80.8774 51.7342C82.3441 51.8661 83.8033 52.0238 85.2885 52.1895C83.8415 51.8944 82.3793 51.6511 80.9247 51.3819L78.7352 51.004C78.683 50.9883 78.5971 50.9906 78.5449 50.9749C78.5786 50.9568 78.6124 50.9388 78.62 50.9129C79.0604 50.961 79.5084 50.9833 79.9825 51.0134L82.0951 51.1707C83.5097 51.2869 84.932 51.3772 86.3312 51.5451C84.9365 51.2658 83.5264 51.0382 82.1163 50.8106L79.9974 50.4822C79.8333 50.4609 79.6691 50.4396 79.5126 50.3925L79.5463 50.3744C80.1324 50.4101 80.6924 50.4379 81.2785 50.4735L83.3205 50.5814C84.6906 50.656 86.0346 50.7227 87.4078 50.8828C86.0652 50.6191 84.7073 50.4073 83.3678 50.2292L81.3456 49.9581C81.2336 49.9525 81.1293 49.9211 81.0173 49.9155C81.5512 49.9355 82.0851 49.9554 82.5929 49.9674L84.5643 50.0259C85.8562 50.0769 87.1817 50.1098 88.4766 50.2463C87.1862 49.9984 85.8729 49.8281 84.5856 49.6658L82.8319 49.4474C82.8579 49.4553 82.8917 49.4372 82.9178 49.4451C83.2538 49.4618 83.5713 49.4447 83.915 49.4355L85.7897 49.4366C87.037 49.4459 88.2843 49.4553 89.5455 49.6098C88.3149 49.3517 87.0722 49.231 85.8033 49.1023L85.5793 49.0912C85.6054 49.0991 85.6131 49.0732 85.6391 49.0811C84.5866 48.9894 83.5341 48.8978 82.4663 48.8579C81.5703 48.8135 80.6667 48.7949 79.763 48.7763C78.002 49.0633 74.8789 49.7291 72.5846 50.9549L71.9464 50.9035L70.8939 50.8119L69.8413 50.7203L69.7892 50.7046C72.5008 49.6046 75.5412 49.0265 77.3206 48.7733C75.3186 48.8185 73.3196 48.9491 71.3422 49.199C70.4264 49.3177 69.5029 49.4624 68.6056 49.6148C67.7005 49.7932 66.7955 49.9715 65.9012 50.2095C65.5085 50.2886 65.1343 50.4013 64.76 50.5141C64.1065 50.5145 63.4529 50.5149 62.8254 50.5232C70.8946 47.5417 85.3707 46.9138 102.416 51.6275C102.65 51.6983 102.885 51.769 103.102 51.806C103.232 51.8453 103.362 51.8846 103.519 51.9318C103.91 52.0497 104.275 52.1598 104.667 52.2777C105.058 52.3956 105.423 52.5057 105.814 52.6236C105.945 52.6629 106.075 52.7022 106.232 52.7494C106.467 52.8201 106.701 52.8909 106.902 52.9796C123.673 58.4283 135.414 66.9568 140.578 73.8981C140.466 73.8926 140.44 73.8847 140.414 73.8768ZM124.499 83.6006C124.503 83.6861 124.558 83.7873 124.613 83.8886C124.516 83.8312 124.427 83.748 124.38 83.6209C124.343 83.5534 124.332 83.4938 124.355 83.4161C124.378 83.3384 124.393 83.2867 124.469 83.2247C124.551 83.1369 124.686 83.0648 124.806 83.0445C124.926 83.0241 125.053 82.9779 125.165 82.9835C125.397 82.9687 125.621 82.9798 125.871 82.9988C126.087 83.0358 126.329 83.0807 126.538 83.1435C126.747 83.2064 126.974 83.3031 127.167 83.4177C127.361 83.5324 127.58 83.6549 127.766 83.7955C127.855 83.8787 127.944 83.9619 127.999 84.0632C128.055 84.1644 128.128 84.2994 128.116 84.4367C128.108 84.4626 128.093 84.5144 128.085 84.5403C128.078 84.5661 128.063 84.6179 128.029 84.636C127.987 84.6799 127.92 84.7159 127.879 84.7598C127.777 84.8139 127.665 84.8083 127.546 84.8287C127.639 84.8005 127.74 84.7464 127.842 84.6923C127.917 84.6304 127.966 84.5606 127.937 84.4672C127.897 84.3142 127.737 84.1815 127.57 84.0747C127.209 83.8532 126.825 83.7094 126.416 83.5577C125.998 83.432 125.599 83.3399 125.177 83.3256C124.979 83.3223 124.748 83.3371 124.613 83.4092C124.519 83.4374 124.47 83.5072 124.499 83.6006ZM119.985 82.4375C119.97 82.4893 119.936 82.5073 119.921 82.5591C119.913 82.585 119.905 82.6108 119.872 82.6289C119.856 82.6806 119.823 82.6987 119.807 82.7504C119.8 82.7763 119.766 82.7944 119.758 82.8202C119.717 82.8642 119.702 82.9159 119.668 82.934C119.66 82.9598 119.626 82.9779 119.619 83.0038C119.521 83.1434 119.404 83.2492 119.28 83.381C119.272 83.4068 119.246 83.399 119.239 83.4249C118.573 84.042 117.561 84.5828 116.406 84.7421C116.348 84.5554 116.229 84.3788 116.111 84.2022C116.556 84.1389 117.016 84.0238 117.432 83.8671C117.915 83.6744 118.361 83.4142 118.744 83.0786C118.936 82.9108 119.102 82.7351 119.233 82.5775C119.324 82.4638 119.381 82.3681 119.437 82.2724C119.437 82.2724 119.437 82.2724 119.411 82.2645C119.348 82.1892 119.259 82.106 119.17 82.0227C119.081 81.9395 118.966 81.8484 118.877 81.7652C118.78 81.7079 118.717 81.6325 118.621 81.5752C117.581 82.7844 116.256 83.2309 115.403 83.425C115.359 83.3834 115.314 83.3418 115.27 83.3001C115.244 83.2923 115.225 83.2585 115.199 83.2507C115.173 83.2428 115.155 83.2091 115.128 83.2012C115.084 83.1596 115.039 83.118 114.987 83.1023L114.961 83.0944C116.605 82.4339 117.353 81.2496 117.531 80.9367C117.479 80.9209 117.46 80.8872 117.408 80.8715C116.899 80.5769 116.355 80.3004 115.786 80.0161C115.365 79.8048 114.919 79.5856 114.491 79.4002C114.04 79.7718 113.552 80.076 113.054 80.3205C112.784 80.4647 112.495 80.5752 112.215 80.6597C111.934 80.7443 111.653 80.8289 111.354 80.8797C111.643 80.7692 111.879 80.6431 112.123 80.491C112.366 80.3389 112.592 80.1531 112.81 79.9932C113.151 79.7015 113.467 79.402 113.731 79.0867C113.407 78.9327 113.05 78.7968 112.726 78.6428C112.176 79.351 110.967 80.171 109.83 80.3641C109.778 80.3484 109.726 80.3327 109.708 80.2989C109.656 80.2832 109.603 80.2675 109.559 80.2259C109.481 80.2023 109.436 80.1607 109.358 80.1371C109.306 80.1214 109.253 80.1056 109.209 80.064C109.157 80.0483 109.086 79.9988 109.034 79.9831C109.008 79.9753 109.008 79.9753 108.982 79.9674C110.143 79.4997 110.987 78.3727 111.17 77.9483C109.293 77.1854 107.375 76.4663 105.441 75.7991C104.77 75.5688 104.1 75.3385 103.403 75.1004C103.377 75.0925 103.325 75.0768 103.299 75.0689C103.682 75.2127 104.051 75.4083 104.427 75.578C104.803 75.7477 105.171 75.9433 105.547 76.113C106.064 76.3816 106.563 76.6165 107.08 76.8851C107.073 76.911 107.065 76.9369 107.05 76.9887C106.51 76.7977 105.962 76.6326 105.422 76.4416C105.03 76.3237 104.647 76.1799 104.255 76.062C103.864 75.9441 103.473 75.8262 103.074 75.7341C103.457 75.8779 103.826 76.0735 104.176 76.2353C104.552 76.405 104.894 76.5928 105.27 76.7625C105.769 76.9973 106.234 77.2503 106.732 77.4851C106.725 77.511 106.683 77.5549 106.676 77.5808C106.162 77.3977 105.666 77.2484 105.144 77.0911C104.753 76.9732 104.388 76.8632 104.004 76.7193C103.613 76.6014 103.248 76.4914 102.849 76.3993C103.206 76.5353 103.575 76.7309 103.925 76.8927C104.274 77.0545 104.643 77.2501 104.993 77.4119C105.413 77.6233 105.834 77.8346 106.254 78.0459C106.213 78.0898 106.179 78.1078 106.164 78.1596C105.72 78.0259 105.311 77.8743 104.867 77.7406C104.502 77.6306 104.137 77.5205 103.771 77.4105C103.406 77.3004 103.041 77.1903 102.668 77.1062C103.026 77.2421 103.376 77.4039 103.718 77.5917C104.068 77.7535 104.418 77.9153 104.76 78.103C105.11 78.2649 105.426 78.4447 105.776 78.6066C105.735 78.6505 105.701 78.6685 105.667 78.6865C104.769 78.3596 103.819 78.017 102.81 77.6845C102.653 77.6373 102.523 77.598 102.374 77.525L102.348 77.5171C102.217 77.4778 102.061 77.4306 101.904 77.3835C101.878 77.3756 101.878 77.3756 101.852 77.3677C101.722 77.3284 101.565 77.2813 101.435 77.242C101.409 77.2341 101.383 77.2262 101.383 77.2262C101.252 77.1869 101.122 77.1476 100.991 77.1083C100.965 77.1005 100.939 77.0926 100.913 77.0847C100.783 77.0454 100.652 77.0061 100.522 76.9668C100.496 76.959 100.444 76.9432 100.417 76.9354C100.287 76.8961 100.183 76.8646 100.052 76.8253C100 76.8096 99.9479 76.7939 99.8957 76.7781C99.7914 76.7467 99.6609 76.7074 99.5566 76.6759C99.5044 76.6602 99.4261 76.6366 99.374 76.6209C99.2696 76.5895 99.1653 76.558 99.0609 76.5266C98.9827 76.503 98.9044 76.4794 98.8522 76.4637C98.7479 76.4322 98.6696 76.4087 98.5653 76.3772C98.4609 76.3458 98.3827 76.3222 98.2783 76.2907C98.2001 76.2672 98.1218 76.2436 98.0436 76.22C97.861 76.165 97.7044 76.1178 97.5218 76.0628C97.3392 76.0077 97.1827 75.9606 97.0001 75.9055C96.9218 75.882 96.8436 75.8584 96.7653 75.8348C96.661 75.8033 96.5827 75.7798 96.4784 75.7483C96.374 75.7169 96.2958 75.6933 96.1914 75.6618C96.1132 75.6383 96.0349 75.6147 95.9827 75.5989C95.8784 75.5675 95.774 75.5361 95.6697 75.5046C95.6175 75.4889 95.5393 75.4653 95.4871 75.4496C95.3827 75.4181 95.2523 75.3788 95.148 75.3474C95.0958 75.3317 95.0436 75.3159 94.9914 75.3002C94.861 75.2609 94.7567 75.2295 94.6262 75.1902C94.6001 75.1823 94.548 75.1666 94.5219 75.1587C94.3915 75.1194 94.261 75.0801 94.1306 75.0408C94.1045 75.0329 94.0784 75.0251 94.0523 75.0172C93.9219 74.9779 93.7915 74.9386 93.661 74.8993C93.6349 74.8914 93.6089 74.8836 93.6089 74.8836C93.4784 74.8443 93.3219 74.7971 93.1915 74.7578C93.1654 74.7499 93.1654 74.7499 93.1393 74.7421C92.9828 74.6949 92.8523 74.6556 92.6958 74.6084L92.6697 74.6006C92.5132 74.5534 92.3828 74.5141 92.2186 74.4928C90.2653 73.9887 88.4347 73.5498 86.8051 73.1997C86.7791 73.1919 86.7791 73.1919 86.753 73.184C86.6747 73.1604 86.5627 73.1549 86.4845 73.1313C86.4323 73.1156 86.4062 73.1077 86.354 73.092C86.2758 73.0684 86.2159 73.0786 86.1377 73.055C86.0855 73.0393 86.0333 73.0235 85.9735 73.0337C85.9213 73.018 85.8431 72.9944 85.7832 73.0046C85.7311 72.9888 85.6452 72.9911 85.593 72.9754C85.5408 72.9597 85.4886 72.944 85.4288 72.9541C85.3506 72.9306 85.2907 72.9407 85.2125 72.9171C85.1603 72.9014 85.1081 72.8857 85.0483 72.8959C84.97 72.8723 84.9102 72.8824 84.832 72.8589C84.7798 72.8431 84.7276 72.8274 84.6939 72.8454C84.6417 72.8297 84.5558 72.832 84.5036 72.8163C84.4514 72.8006 84.3993 72.7848 84.3394 72.795C84.2873 72.7793 84.2014 72.7816 84.1492 72.7659C84.097 72.7501 84.0372 72.7603 83.985 72.7446L83.9589 72.7367C83.9405 72.703 83.9221 72.6692 83.896 72.6614C84.5081 72.7049 85.1126 72.7743 85.7248 72.8178C86.1391 72.8581 86.5533 72.8983 86.9676 72.9386C87.3818 72.9788 87.7884 73.045 88.2211 73.119C87.8375 72.9752 87.4125 72.8753 87.0135 72.7832C86.6145 72.6912 86.1972 72.5654 85.7982 72.4734C85.0525 72.3051 84.3068 72.1367 83.5871 71.9762L83.5687 71.9425C84.3189 71.9994 85.0692 72.0563 85.8194 72.1133C86.2337 72.1535 86.648 72.1938 87.0622 72.234C87.4765 72.2743 87.8907 72.3146 88.3158 72.4144C87.9321 72.2706 87.5071 72.1708 87.1081 72.0787C86.7092 71.9867 86.2841 71.8868 85.8852 71.7948C85.0873 71.6107 84.2633 71.4188 83.4577 71.2606C84.2678 71.3074 85.104 71.362 85.9064 71.4346C86.3207 71.4749 86.7349 71.5152 87.1492 71.5554C87.5634 71.5957 87.9777 71.6359 88.4027 71.7358C88.0191 71.592 87.594 71.4921 87.1951 71.4001C86.7961 71.3081 86.3711 71.2082 85.9722 71.1161C85.2003 70.9399 84.4285 70.7637 83.6752 70.6213L83.6828 70.5954C84.4407 70.6264 85.217 70.6912 85.9934 70.756C86.4076 70.7963 86.8219 70.8365 87.2362 70.8768C87.6504 70.917 88.0647 70.9573 88.4636 71.0493C88.1061 70.9134 87.7071 70.8213 87.3342 70.7372C86.1635 70.4689 84.9851 70.2266 83.799 70.0101C82.5868 69.7858 81.367 69.5874 80.1396 69.4148C79.9232 69.3778 79.6731 69.3588 79.4491 69.3477C79.2289 70.3809 80.2119 71.8613 80.6894 72.4563C80.4393 72.4373 80.2077 72.4521 79.9837 72.441C79.2254 71.9305 78.2029 70.7766 78.1726 69.245C77.6387 69.2251 77.1048 69.2051 76.6154 69.2268C76.4697 69.2393 76.35 69.2596 76.2304 69.2799C76.1107 69.3003 75.9911 69.3206 75.8975 69.3488C75.8975 69.3488 75.8975 69.3488 75.8714 69.3409C75.8669 69.4523 75.8547 69.5896 75.8763 69.7089C75.8933 69.9396 75.9365 70.1781 76.0133 70.3987C76.1594 70.8656 76.3837 71.3561 76.6832 71.7847C76.9381 72.1716 77.2606 72.5225 77.6059 72.7958C77.3851 72.8702 77.2087 72.9862 77.0661 73.0842C76.2126 72.3195 75.678 71.3408 75.4304 70.4485C75.4119 70.4148 75.4196 70.3889 75.4012 70.3552C75.3904 70.2955 75.3796 70.2359 75.3612 70.2021C75.3504 70.1425 75.3396 70.0829 75.3365 69.9973C75.318 69.9636 75.3333 69.9118 75.3149 69.8781C75.3041 69.8184 75.3118 69.7925 75.301 69.7329C75.3087 69.707 75.2902 69.6733 75.2979 69.6474C75.2871 69.5877 75.2947 69.5619 75.31 69.5101C75.3177 69.4842 75.2993 69.4504 75.3069 69.4246C75.3222 69.3728 75.3038 69.339 75.3114 69.3131C75.3191 69.2873 75.3268 69.2614 75.3083 69.2276C75.316 69.2017 75.3313 69.15 75.3128 69.1162C75.3281 69.0644 75.3358 69.0385 75.3511 68.9868C75.3588 68.9609 75.3588 68.9609 75.3664 68.935C75.3664 68.935 75.5887 68.6637 76.997 68.6088C77.942 68.5834 79.3382 68.6658 81.431 68.9864L81.4571 68.9943C81.5952 69.0077 81.7594 69.029 81.8898 69.0683C81.9159 69.0761 81.9159 69.0761 81.942 69.084C82.054 69.0896 82.1844 69.1289 82.3225 69.1423C82.3747 69.158 82.4008 69.1659 82.4606 69.1557C82.4867 69.1636 82.5389 69.1793 82.5726 69.1613C82.6769 69.1927 82.7628 69.1904 82.8672 69.2218C82.8933 69.2297 82.9455 69.2454 82.9792 69.2274C83.0835 69.2588 83.1955 69.2644 83.2738 69.288C83.2999 69.2958 83.3521 69.3116 83.3858 69.2935C83.4901 69.325 83.6021 69.3305 83.7065 69.362C83.7326 69.3699 83.7847 69.3856 83.8108 69.3934C83.9152 69.4249 84.0272 69.4304 84.1315 69.4619C84.1576 69.4697 84.2098 69.4855 84.2359 69.4933C84.3402 69.5248 84.4522 69.5303 84.5826 69.5696C84.6087 69.5775 84.6348 69.5854 84.687 69.6011C84.7913 69.6325 84.9294 69.6459 85.0338 69.6774C85.0599 69.6853 85.0859 69.6931 85.112 69.701C85.2425 69.7403 85.3545 69.7458 85.4849 69.7852C85.511 69.793 85.5371 69.8009 85.5632 69.8087C85.6936 69.848 85.8317 69.8615 85.9621 69.9008C85.9882 69.9086 85.9882 69.9086 86.0143 69.9165C86.1447 69.9558 86.2828 69.9692 86.4393 70.0164C86.4654 70.0242 86.4654 70.0242 86.4915 70.0321C86.6219 70.0714 86.7861 70.0927 86.9165 70.132C86.9165 70.132 86.9165 70.132 86.9426 70.1399C87.0991 70.187 87.2633 70.2083 87.3937 70.2476C90.1419 70.8502 93.1202 71.635 96.2398 72.5187C96.292 72.5345 96.3181 72.5423 96.3703 72.558C96.5007 72.5973 96.6572 72.6445 96.7877 72.6838C96.8138 72.6917 96.8659 72.7074 96.892 72.7153C97.0485 72.7624 97.179 72.8017 97.3355 72.8489C97.3876 72.8646 97.4398 72.8804 97.492 72.8961C97.6224 72.9354 97.7529 72.9747 97.8833 73.014C98.0659 73.069 98.2485 73.1241 98.4311 73.1791C98.6137 73.2341 98.7963 73.2891 98.9789 73.3442C99.1094 73.3835 99.2398 73.4228 99.3702 73.4621C99.4224 73.4778 99.4746 73.4935 99.5267 73.5093C99.6833 73.5564 99.8137 73.5957 99.9702 73.6429C99.9963 73.6508 100.048 73.6665 100.075 73.6743C100.205 73.7137 100.362 73.7608 100.492 73.8001C100.544 73.8159 100.57 73.8237 100.622 73.8394C103.685 74.8188 106.629 75.8186 109.254 76.8354C109.411 76.8826 109.534 76.9478 109.69 76.9949L109.716 77.0028C109.847 77.0421 109.995 77.1152 110.126 77.1545C110.152 77.1623 110.152 77.1623 110.178 77.1702C110.308 77.2095 110.431 77.2747 110.562 77.314C110.588 77.3219 110.588 77.3219 110.614 77.3297C110.744 77.369 110.867 77.4342 110.997 77.4735C111.024 77.4814 111.05 77.4892 111.076 77.4971C111.206 77.5364 111.303 77.5937 111.433 77.633C111.459 77.6409 111.485 77.6488 111.512 77.6566C111.616 77.6881 111.739 77.7533 111.843 77.7847C111.869 77.7926 111.921 77.8083 111.947 77.8162C112.052 77.8476 112.148 77.9049 112.253 77.9364C112.279 77.9442 112.331 77.96 112.357 77.9678C112.461 77.9993 112.558 78.0566 112.662 78.0881C112.689 78.0959 112.741 78.1116 112.767 78.1195C112.871 78.1509 112.968 78.2083 113.046 78.2319C113.098 78.2476 113.124 78.2554 113.169 78.2971C113.273 78.3285 113.344 78.378 113.448 78.4094C113.5 78.4251 113.526 78.433 113.571 78.4746C113.675 78.5061 113.746 78.5555 113.85 78.587C113.902 78.6027 113.929 78.6106 113.973 78.6522C114.025 78.6679 114.051 78.6758 114.096 78.7174C114.219 78.7826 114.323 78.814 114.446 78.8792C114.472 78.8871 114.472 78.8871 114.498 78.8949C114.647 78.968 114.77 79.0332 114.9 79.0725L114.926 79.0803C116.72 79.9311 117.914 80.6011 118.699 81.1194C119.933 81.9424 120.016 82.3339 120.034 82.3677C120.019 82.4195 119.996 82.4971 119.981 82.5489C120.019 82.4195 119.985 82.4375 119.985 82.4375ZM71.4333 67.4396C71.3933 67.2866 71.2336 67.1539 71.0663 67.0471C70.7056 66.8256 70.322 66.6818 69.9123 66.5301C69.4949 66.4043 69.0959 66.3123 68.674 66.2979C68.4761 66.2947 68.2445 66.3095 68.1095 66.3816C68.042 66.4176 67.993 66.4874 67.9961 66.5729C67.9992 66.6585 68.0545 66.7597 68.1098 66.861C68.0131 66.8036 67.9241 66.7204 67.8765 66.5933C67.8396 66.5258 67.8288 66.4661 67.8518 66.3885C67.8747 66.3108 67.89 66.259 67.9652 66.1971C68.0479 66.1093 68.1829 66.0372 68.3026 66.0168C68.4222 65.9965 68.5495 65.9503 68.6615 65.9558C68.8932 65.9411 69.1172 65.9522 69.3672 65.9712C69.5836 66.0082 69.826 66.053 70.0347 66.1159C70.2434 66.1788 70.4705 66.2755 70.6639 66.3901C70.8573 66.5048 71.0768 66.6273 71.2625 66.7679C71.3515 66.8511 71.4406 66.9343 71.4959 67.0356C71.5512 67.1368 71.6249 67.2718 71.6127 67.4091C71.6051 67.435 71.5898 67.4868 71.5821 67.5126C71.5745 67.5385 71.5592 67.5903 71.5254 67.6083C71.484 67.6522 71.4166 67.6883 71.3752 67.7322C71.274 67.7863 71.162 67.7807 71.0423 67.8011C71.1359 67.7729 71.2371 67.7188 71.3383 67.6647C71.395 67.569 71.444 67.4992 71.4333 67.4396ZM63.5678 61.1785C63.5615 61.0075 63.4356 60.8568 63.3097 60.7061C63.1838 60.5553 63.0165 60.4485 62.8568 60.3158C62.1692 59.8549 61.3835 59.5335 60.6009 59.2977C59.7922 59.054 58.9682 58.862 58.1505 58.8412C57.9526 58.8379 57.747 58.8606 57.5414 58.8832C57.3359 58.9058 57.1488 58.9622 57.0061 59.0602C56.931 59.1221 56.8896 59.166 56.8406 59.2358C56.8176 59.3135 56.7947 59.3912 56.8162 59.5104C56.8486 59.6894 56.9592 59.8918 57.0774 60.0684C56.9178 59.9358 56.7397 59.7693 56.6628 59.5488C56.6075 59.4476 56.5936 59.3024 56.6319 59.173C56.6702 59.0435 56.7345 58.9219 56.8173 58.8341C57.0089 58.6663 57.2375 58.566 57.4507 58.5175C57.6715 58.4431 57.9032 58.4283 58.1088 58.4057C58.546 58.3683 58.994 58.3905 59.4267 58.4645C59.867 58.5126 60.292 58.6125 60.7018 58.7642C61.1192 58.89 61.5212 59.0675 61.9157 59.271C62.3101 59.4744 62.6969 59.7038 63.0346 60.0029C63.2203 60.1434 63.3723 60.302 63.5167 60.4865C63.572 60.5877 63.6533 60.6968 63.7086 60.7981C63.7639 60.8993 63.7779 61.0445 63.7733 61.1559C63.7612 61.2932 63.7229 61.4226 63.6401 61.5105C63.5573 61.5983 63.4484 61.6783 63.3472 61.7323C63.1448 61.8405 62.9131 61.8553 62.7076 61.8779C62.9208 61.8294 63.1156 61.7471 63.2658 61.6232C63.341 61.5613 63.4161 61.4994 63.4652 61.4296C63.574 61.3496 63.597 61.2719 63.5678 61.1785ZM61.7511 60.8848L61.7817 60.7813C61.8523 60.8307 61.9045 60.8465 61.9751 60.8959L61.9445 60.9995C61.629 61.7784 60.8561 62.2785 60.0276 62.198C60.7563 62.1357 61.4693 61.6457 61.7511 60.8848ZM58.676 60.0427C58.6332 60.2836 58.6242 60.5064 58.6412 60.7371C58.724 60.6492 58.8697 60.6368 59.0002 60.6761C59.2089 60.739 59.3195 60.9415 59.2582 61.1486C59.2047 61.3298 59.0022 61.4379 58.812 61.4088C58.9626 61.7643 59.2297 62.014 59.5612 62.142C58.6297 61.8332 58.0537 60.8983 58.251 59.9428L58.2555 59.8314C58.3936 59.8448 58.5654 59.8402 58.7296 59.8615L58.676 60.0427ZM96.7036 66.625C96.6483 66.5238 96.593 66.4226 96.5791 66.2774C96.5576 66.1581 96.5958 66.0287 96.6602 65.9071C96.7245 65.7855 96.8334 65.7056 96.9085 65.6436C97.0097 65.5895 97.111 65.5355 97.2383 65.4892C97.4591 65.4148 97.6724 65.3663 97.904 65.3515C98.3489 65.2883 98.7969 65.3105 99.2372 65.3586C99.6776 65.4067 100.103 65.5066 100.528 65.6065C100.945 65.7323 101.355 65.884 101.757 66.0615C102.151 66.265 102.546 66.4684 102.891 66.7416C103.077 66.8822 103.229 67.0408 103.381 67.1994C103.525 67.3838 103.669 67.5683 103.739 67.8147C103.76 67.934 103.774 68.0791 103.71 68.2007C103.672 68.3301 103.589 68.418 103.48 68.4979C103.296 68.6398 103.057 68.6805 102.851 68.7031C103.046 68.6209 103.248 68.5127 103.372 68.381C103.421 68.3112 103.478 68.2155 103.501 68.1378C103.524 68.0602 103.495 67.9668 103.458 67.8993C103.392 67.7384 103.266 67.5877 103.106 67.455C102.947 67.3223 102.787 67.1896 102.62 67.0828C101.924 66.6477 101.131 66.3522 100.322 66.1085C99.5137 65.8648 98.6821 65.6988 97.8828 65.7117C97.6849 65.7084 97.4793 65.731 97.2922 65.7874C97.105 65.8438 96.9179 65.9002 96.8198 66.0398C96.7708 66.1096 96.7217 66.1794 96.7249 66.2649C96.728 66.3504 96.7311 66.436 96.7864 66.5372C96.8709 66.7318 96.9892 66.9085 97.1151 67.0592C97 66.9681 96.8219 66.8016 96.7036 66.625ZM140.727 84.5437C140.75 84.4661 140.721 84.3727 140.684 84.3052C140.618 84.1443 140.492 83.9936 140.332 83.8609C140.173 83.7282 140.013 83.5955 139.846 83.4887C139.15 83.0536 138.357 82.7582 137.548 82.5145C136.74 82.2708 135.908 82.1047 135.109 82.1176C134.911 82.1143 134.705 82.137 134.518 82.1933C134.331 82.2497 134.144 82.3061 134.046 82.4457C133.997 82.5155 133.948 82.5853 133.951 82.6708C133.954 82.7564 133.957 82.8419 134.012 82.9431C134.097 83.1378 134.215 83.3144 134.341 83.4651C134.181 83.3324 133.996 83.1918 133.885 82.9894C133.83 82.8881 133.775 82.7869 133.761 82.6417C133.739 82.5224 133.777 82.393 133.842 82.2714C133.906 82.1498 134.015 82.0699 134.09 82.0079C134.191 81.9538 134.292 81.8998 134.42 81.8536C134.641 81.7791 134.854 81.7306 135.085 81.7158C135.53 81.6526 135.978 81.6748 136.419 81.7229C136.859 81.771 137.284 81.8709 137.709 81.9708C138.126 82.0966 138.536 82.2483 138.938 82.4258C139.333 82.6293 139.727 82.8327 140.073 83.106C140.258 83.2465 140.41 83.4051 140.562 83.5637C140.707 83.7481 140.851 83.9326 140.92 84.179C140.942 84.2983 140.956 84.4434 140.891 84.565C140.853 84.6944 140.77 84.7823 140.661 84.8622C140.477 85.0042 140.238 85.0448 140.032 85.0674C140.227 84.9852 140.43 84.877 140.554 84.7453C140.655 84.6912 140.704 84.6214 140.727 84.5437ZM139.236 84.207L139.179 84.3027C138.833 85.1852 137.836 85.6742 136.889 85.4171C137.228 85.5193 137.595 85.4324 137.914 85.2184C137.731 85.1634 137.621 84.9609 137.682 84.7538C137.743 84.5467 137.946 84.4385 138.154 84.5014C138.285 84.5407 138.366 84.6498 138.421 84.7511C138.561 84.5676 138.674 84.3762 138.769 84.1511L138.857 83.9518C138.972 84.0429 139.121 84.116 139.236 84.207ZM135.763 83.076L135.732 83.1795C135.555 83.9719 135.878 84.8022 136.487 85.2396C135.758 84.8225 135.349 83.9945 135.534 83.1763L135.565 83.0727C135.625 83.0626 135.711 83.0602 135.763 83.076ZM123.148 81.9246C123.096 81.9089 123.062 81.9269 123.01 81.9112C122.95 81.9214 122.898 81.9057 122.838 81.9158C122.812 81.908 122.752 81.9181 122.726 81.9103C122.666 81.9204 122.614 81.9047 122.554 81.9149C122.528 81.907 122.469 81.9172 122.442 81.9093C122.383 81.9195 122.33 81.9038 122.245 81.9061C122.218 81.8982 122.159 81.9084 122.133 81.9005C122.073 81.9107 121.994 81.8871 121.935 81.8973C121.909 81.8894 121.875 81.9074 121.823 81.8917C121.737 81.894 121.685 81.8783 121.599 81.8806C121.573 81.8727 121.546 81.8649 121.513 81.8829C121.315 81.8796 121.098 81.8426 120.908 81.8135C120.835 81.6785 120.768 81.5176 120.661 81.4006L120.688 81.2116C122.21 81.4447 123.801 81.4448 125.342 81.2323C125.727 81.1792 126.112 81.1261 126.452 81.0313C126.632 81.0008 126.793 80.9366 126.954 80.8724C126.935 80.8386 126.917 80.8049 126.865 80.7891C126.757 80.6722 126.624 80.5473 126.516 80.4304C126.134 80.0896 125.692 79.759 125.216 79.4465C123.132 80.5382 120.559 80.4959 119.629 80.4695C119.54 80.3863 119.418 80.3211 119.321 80.2637C119.295 80.2559 119.276 80.2221 119.25 80.2143C119.224 80.2064 119.224 80.2064 119.198 80.1985C122.131 79.9829 123.58 78.9253 123.881 78.6776C123.442 78.4325 122.977 78.1796 122.512 77.9267C121.232 77.259 119.884 76.6274 118.555 76.0296L118.655 76.1724C117.999 76.5667 117.313 76.8676 116.617 77.1088C116.269 77.2295 115.921 77.3501 115.554 77.437C115.187 77.5238 114.821 77.6107 114.469 77.6458C114.81 77.5511 115.166 77.4046 115.496 77.2502C115.825 77.0958 116.129 76.9336 116.466 76.7533C116.98 76.457 117.475 76.127 117.926 75.7554C117.524 75.5778 117.148 75.4081 116.738 75.2564C116.757 75.2902 116.801 75.3318 116.82 75.3655C115.986 76.0728 114.355 76.8784 112.961 77.0784C112.883 77.0549 112.838 77.0132 112.76 76.9897C112.76 76.9897 112.76 76.9897 112.734 76.9818C112.507 76.8852 112.253 76.7807 112 76.6762C113.599 76.171 114.997 74.9008 115.167 74.6137C114.024 74.1564 112.88 73.6991 111.703 73.2598L111.696 73.2857C110.545 72.8543 109.42 72.4307 108.261 72.0252C106.823 71.5073 105.396 71.049 103.935 70.6088C105.34 71.1447 106.755 71.7403 108.136 72.3539C109.238 72.8551 110.313 73.3484 111.415 73.8497C111.408 73.8756 111.374 73.8936 111.366 73.9195C110.513 73.6342 109.686 73.3567 108.825 73.0973C107.737 72.7412 106.641 72.411 105.538 72.1068C106.611 72.5146 107.642 72.9663 108.7 73.426C109.407 73.7237 110.081 74.0395 110.788 74.3373C110.747 74.3812 110.687 74.3914 110.619 74.4275C109.662 74.1107 108.704 73.7939 107.747 73.4772C106.711 73.1368 105.668 72.8224 104.616 72.5338C105.637 72.9259 106.642 73.3698 107.621 73.8059C108.347 74.1374 109.055 74.4352 109.781 74.7667C109.721 74.7769 109.653 74.8129 109.593 74.8231C108.61 74.4985 107.652 74.1817 106.669 73.8571C105.685 73.5325 104.668 73.2259 103.669 72.953C104.637 73.3294 105.59 73.7576 106.543 74.1858C107.224 74.4757 107.872 74.7836 108.546 75.0994C108.4 75.1119 108.273 75.1581 108.127 75.1706C105.87 74.3494 103.448 73.5068 100.925 72.7184C100.899 72.7105 100.899 72.7105 100.873 72.7027C100.717 72.6555 100.534 72.6005 100.378 72.5533C100.351 72.5455 100.299 72.5297 100.273 72.5219C100.117 72.4747 99.9862 72.4354 99.8297 72.3882C99.7515 72.3646 99.6732 72.3411 99.5949 72.3175C99.4906 72.286 99.3863 72.2546 99.2819 72.2231C99.0993 72.1681 98.9167 72.1131 98.708 72.0502C98.5254 71.9952 98.3428 71.9401 98.1341 71.8772C98.0298 71.8458 97.9254 71.8144 97.8211 71.7829C97.7428 71.7593 97.6645 71.7357 97.5863 71.7122C97.4298 71.665 97.2993 71.6257 97.1428 71.5785C97.1167 71.5707 97.0646 71.5549 97.0385 71.5471C96.882 71.4999 96.6993 71.4449 96.5428 71.3977C96.5167 71.3898 96.5167 71.3898 96.4907 71.382C92.1972 70.1445 88.0925 69.1331 84.5681 68.4657C84.479 68.3825 84.3639 68.2914 84.2749 68.2082C84.6891 68.2484 85.1295 68.2965 85.5361 68.3627C86.4428 68.4668 87.3604 68.6305 88.2779 68.7943C87.391 68.527 86.5041 68.2597 85.6095 68.0183C84.9236 67.8398 84.23 67.6872 83.5364 67.5345C83.4474 67.4513 83.3845 67.376 83.2954 67.2927C83.9337 67.3441 84.5643 67.4214 85.2209 67.5065C86.1538 67.6185 87.079 67.7563 87.9966 67.92C87.1096 67.6528 86.1889 67.4035 85.2944 67.1621C84.478 66.9443 83.654 66.7524 82.8147 66.6122C82.7779 66.5447 82.7671 66.4851 82.7302 66.4176C83.4544 66.4666 84.1709 66.5416 84.9135 66.6244C85.8464 66.7364 86.7716 66.8742 87.7229 67.0199C86.8098 66.7448 85.9152 66.5034 84.9869 66.28C84.2488 66.0858 83.5292 65.9253 82.7758 65.7829C82.7911 65.7311 82.8248 65.7131 82.8662 65.6691C83.3066 65.7173 83.7469 65.7654 84.2134 65.8214C84.87 65.9065 85.5528 65.9995 86.2095 66.0846C87.5413 66.2886 88.8731 66.4926 90.2049 66.6966C88.9114 66.3631 87.5841 66.0477 86.2829 65.7402C85.6154 65.5954 84.9817 65.4326 84.3142 65.2879C84.2099 65.2564 84.124 65.2587 84.0196 65.2273C84.0534 65.2093 84.1055 65.225 84.1393 65.207C82.8304 64.9253 81.5139 64.6696 80.2159 64.4475C79.8875 64.405 79.5407 64.3287 79.2124 64.2861C79.1863 64.2782 79.1863 64.2782 79.1526 64.2963C76.5968 64.4846 79.0516 66.9443 79.8975 67.7348C79.5094 67.7024 79.1549 67.652 78.8189 67.6354C77.3731 66.664 75.1119 64.7984 76.1269 63.8637C75.8507 63.8369 75.6006 63.8179 75.3582 63.7731C74.5558 63.7004 73.7533 63.6278 72.9617 63.6147C72.6257 63.5981 72.3081 63.6151 71.9906 63.6322C71.4337 63.69 70.9029 63.7556 70.409 63.8887C70.561 64.0472 70.7314 64.2396 70.8834 64.3981C71.1429 64.6737 71.4361 64.9312 71.737 65.1628C72.9251 66.1412 74.2559 67.0215 75.6555 67.6688C75.3564 67.7196 75.0941 67.838 74.884 67.972C74.7091 67.8911 74.5157 67.7764 74.3407 67.6955C74.3146 67.6876 74.2885 67.6798 74.2701 67.646C74.1995 67.5966 74.1473 67.5808 74.0767 67.5314C74.0506 67.5235 74.0322 67.4898 73.98 67.474C73.9355 67.4324 73.8572 67.4088 73.8127 67.3672C73.7866 67.3594 73.7421 67.3178 73.716 67.3099C73.6715 67.2683 73.6193 67.2526 73.5487 67.2031C73.5226 67.1952 73.4781 67.1536 73.452 67.1458C73.4075 67.1041 73.3553 67.0884 73.3108 67.0468C73.2847 67.039 73.2402 66.9973 73.2141 66.9895C73.1696 66.9479 73.1174 66.9322 73.0729 66.8905C73.0207 66.8748 73.0023 66.8411 72.9762 66.8332C72.9317 66.7916 72.8795 66.7759 72.835 66.7343C72.8089 66.7264 72.7644 66.6848 72.7383 66.6769C72.6938 66.6353 72.6416 66.6196 72.5971 66.578C72.571 66.5701 72.5265 66.5285 72.5081 66.4948C72.4635 66.4532 72.4114 66.4374 72.3929 66.4037C72.3745 66.3699 72.3223 66.3542 72.3039 66.3205C72.2594 66.2789 72.2333 66.271 72.1888 66.2294C72.1703 66.1956 72.1182 66.1799 72.0997 66.1462C72.0552 66.1046 72.0291 66.0967 71.9846 66.0551C71.9662 66.0213 71.914 66.0056 71.8956 65.9719C71.851 65.9303 71.825 65.9224 71.7804 65.8808C71.762 65.847 71.7098 65.8313 71.6914 65.7976C71.6469 65.7559 71.6208 65.7481 71.5763 65.7065C71.5578 65.6727 71.5057 65.657 71.4872 65.6233C71.4427 65.5816 71.4166 65.5738 71.3721 65.5322C71.3537 65.4984 71.3015 65.4827 71.2831 65.449C71.2646 65.4152 71.2125 65.3995 71.194 65.3657C71.1756 65.332 71.1495 65.3241 71.105 65.2825C71.0865 65.2488 71.0344 65.233 71.0159 65.1993C70.9975 65.1655 70.9714 65.1577 70.953 65.1239C70.9346 65.0902 70.8824 65.0745 70.8639 65.0407C70.8455 65.007 70.8194 64.9991 70.801 64.9654C70.7826 64.9316 70.7304 64.9159 70.7119 64.8821C70.6935 64.8484 70.6674 64.8405 70.649 64.8068C70.6306 64.773 70.6045 64.7652 70.56 64.7236C70.5415 64.6898 70.5154 64.6819 70.497 64.6482C70.4786 64.6144 70.4525 64.6066 70.408 64.565C70.3895 64.5312 70.3634 64.5234 70.345 64.4896C70.3266 64.4559 70.3005 64.448 70.2821 64.4143C70.2636 64.3805 70.2375 64.3727 70.2191 64.3389C70.2007 64.3052 70.1746 64.2973 70.1561 64.2635C70.1301 64.2557 70.1116 64.2219 70.1116 64.2219C70.0932 64.1882 70.0671 64.1803 70.0487 64.1466C70.0226 64.1387 70.0302 64.1128 70.0041 64.105C69.9857 64.0712 69.9596 64.0634 69.9412 64.0296C69.9151 64.0217 69.9228 63.9959 69.8967 63.988C69.8782 63.9542 69.8522 63.9464 69.8598 63.9205C69.8337 63.9126 69.8414 63.8867 69.8153 63.8789C69.7969 63.8451 69.7969 63.8451 69.7784 63.8114L69.76 63.7776C69.7416 63.7439 69.7416 63.7439 69.7231 63.7101L69.7047 63.6764C69.6862 63.6426 69.6862 63.6426 69.6678 63.6089L69.6494 63.5751C69.657 63.5493 69.6309 63.5414 69.6386 63.5155C69.6386 63.5155 69.6386 63.5155 69.6202 63.4818C69.6017 63.448 69.6017 63.448 69.6094 63.4221C69.6094 63.4221 69.6094 63.4221 69.617 63.3962C69.7151 63.2566 70.1061 62.8952 71.8657 62.8052C71.8657 62.8052 71.8657 62.8052 71.8918 62.813C71.9777 62.8107 72.0636 62.8084 72.1496 62.8061C72.3475 62.8094 72.553 62.7867 72.777 62.7979C72.8629 62.7956 72.9749 62.8011 73.0608 62.7988C73.2588 62.8021 73.4306 62.7975 73.6469 62.8345L73.673 62.8423C74.0949 62.8567 74.569 62.8868 75.0953 62.9326C75.1213 62.9405 75.1474 62.9483 75.1812 62.9303C75.3714 62.9594 75.5433 62.9548 75.7335 62.984C75.9822 63.1999 76.306 63.3539 76.6451 63.4561C77.2712 63.6447 77.9401 63.5925 78.4983 63.3379C78.5505 63.3536 78.6103 63.3434 78.6625 63.3592C81.7404 63.8074 85.3278 64.5502 89.1716 65.483C89.4064 65.5537 89.6227 65.5907 89.8575 65.6615C90.9945 65.9477 92.1576 66.2418 93.3468 66.5438C94.823 66.9323 96.3175 67.3545 97.8643 67.7924C98.1088 68.5991 98.7613 69.2751 99.6221 69.5345C100.483 69.7939 101.396 69.5897 102.038 69.0502C109.085 71.2583 115.528 73.6795 120.349 75.9215C120.401 75.9373 120.445 75.9789 120.498 75.9946C120.826 76.5166 121.331 76.9225 121.983 77.119C122.323 77.2212 122.659 77.2379 123.002 77.2287C123.177 77.3096 123.371 77.4243 123.546 77.5052C123.546 77.5052 123.546 77.5052 123.572 77.513C123.992 77.7243 124.353 77.9458 124.695 78.1335C124.766 78.183 124.836 78.2325 124.941 78.2639C125.011 78.3134 125.082 78.3629 125.16 78.3865C125.398 78.5427 125.617 78.6653 125.829 78.8137L125.855 78.8215C127.777 80.1055 127.955 80.7513 127.936 80.9145C127.928 80.9404 127.902 80.9325 127.894 80.9584C127.894 80.9584 127.887 80.9843 127.861 80.9764L127.827 80.9945L127.793 81.0125L127.759 81.0305L127.726 81.0486C127.699 81.0407 127.692 81.0666 127.666 81.0587C127.666 81.0587 127.632 81.0767 127.606 81.0689C127.572 81.0869 127.572 81.0869 127.538 81.1049C127.512 81.0971 127.505 81.123 127.479 81.1151C127.445 81.1331 127.445 81.1331 127.411 81.1512C127.385 81.1433 127.377 81.1692 127.351 81.1613C127.318 81.1793 127.291 81.1715 127.284 81.1974C127.258 81.1895 127.224 81.2075 127.224 81.2075C127.19 81.2256 127.164 81.2177 127.13 81.2357C127.097 81.2538 127.071 81.2459 127.063 81.2718C127.029 81.2898 127.003 81.2819 126.969 81.3C126.936 81.318 126.91 81.3101 126.876 81.3282C126.842 81.3462 126.816 81.3383 126.782 81.3564C126.749 81.3744 126.722 81.3665 126.689 81.3845C126.655 81.4026 126.629 81.3947 126.595 81.4127C126.561 81.4308 126.535 81.4229 126.502 81.4409C126.468 81.459 126.442 81.4511 126.408 81.4691C126.374 81.4871 126.348 81.4793 126.314 81.4973C126.281 81.5153 126.255 81.5075 126.195 81.5176C126.161 81.5357 126.135 81.5278 126.101 81.5458C126.067 81.5639 126.015 81.5481 125.982 81.5662C125.948 81.5842 125.922 81.5763 125.862 81.5865C125.828 81.6045 125.776 81.5888 125.742 81.6068C125.709 81.6248 125.656 81.6091 125.623 81.6271C125.589 81.6452 125.537 81.6294 125.503 81.6475C125.469 81.6655 125.417 81.6498 125.383 81.6678C125.35 81.6858 125.297 81.6701 125.264 81.6881C125.23 81.7062 125.178 81.6904 125.144 81.7085C125.084 81.7186 125.058 81.7108 124.998 81.7209C124.965 81.739 124.912 81.7232 124.879 81.7413C124.819 81.7514 124.793 81.7436 124.733 81.7537C124.699 81.7718 124.647 81.756 124.613 81.7741C124.553 81.7842 124.527 81.7764 124.468 81.7865C124.434 81.8046 124.382 81.7888 124.348 81.8069C124.288 81.817 124.262 81.8092 124.202 81.8193C124.168 81.8374 124.116 81.8216 124.082 81.8397C124.023 81.8498 123.97 81.8341 123.937 81.8521C123.903 81.8702 123.851 81.8544 123.817 81.8725C123.757 81.8826 123.705 81.8669 123.671 81.8849C123.619 81.8692 123.585 81.8872 123.533 81.8715C123.26 81.9302 123.208 81.9145 123.148 81.9246ZM120.748 74.3785L120.779 74.2749C120.839 74.2647 120.917 74.2883 121.003 74.286L120.972 74.3896C120.795 75.1819 121.117 76.0122 121.727 76.4496C120.964 76.0506 120.563 75.1967 120.748 74.3785ZM124.449 75.4092L124.393 75.5049C124.046 76.3874 123.05 76.8764 122.103 76.6193C122.442 76.7215 122.809 76.6346 123.127 76.4206C122.945 76.3656 122.834 76.1631 122.895 75.956C122.957 75.7489 123.159 75.6407 123.368 75.7036C123.498 75.7429 123.58 75.852 123.635 75.9533C123.774 75.7698 123.888 75.5784 123.983 75.3533L124.07 75.154C124.185 75.2451 124.334 75.3182 124.449 75.4092ZM102.062 67.8169L102.005 67.9125C101.659 68.795 100.662 69.284 99.7154 69.0269C100.054 69.1291 100.421 69.0422 100.74 68.8282C100.557 68.7732 100.447 68.5707 100.508 68.3636C100.569 68.1565 100.772 68.0483 100.98 68.1112C101.111 68.1505 101.192 68.2596 101.248 68.3609C101.387 68.1774 101.5 67.986 101.595 67.7609L101.683 67.5616C101.816 67.6865 101.939 67.7517 102.062 67.8169ZM98.6153 66.6936L98.5847 66.7972C98.4072 67.5895 98.73 68.4198 99.3394 68.8572C98.6104 68.4402 98.2017 67.6122 98.3867 66.7939L98.4174 66.6904C98.4772 66.6802 98.5294 66.6959 98.6153 66.6936ZM75.4021 60.7414L75.4066 60.63C75.5447 60.6434 75.7165 60.6388 75.8807 60.6601L75.8456 60.875C75.8028 61.1159 75.7937 61.3387 75.8108 61.5694C75.8935 61.4815 76.0393 61.4691 76.1697 61.5084C76.3784 61.5713 76.489 61.7738 76.4278 61.9809C76.3742 62.1621 76.1718 62.2702 75.9815 62.2411C76.1321 62.5966 76.3992 62.8463 76.7307 62.9744C75.7808 62.6317 75.2125 61.671 75.4021 60.7414ZM79.1001 61.6866L79.0695 61.7902C78.754 62.5691 77.9811 63.0692 77.1526 62.9887C77.8998 62.9601 78.5944 62.4364 78.9022 61.6834L78.9328 61.5798C78.9773 61.6214 79.0479 61.6709 79.1001 61.6866ZM124.17 73.6618C124.565 73.8652 124.959 74.0687 125.305 74.3419C125.49 74.4824 125.642 74.641 125.794 74.7996C125.939 74.9841 126.083 75.1685 126.152 75.4149C126.174 75.5342 126.188 75.6794 126.123 75.801C126.085 75.9304 126.002 76.0182 125.893 76.0982C125.709 76.2401 125.47 76.2808 125.264 76.3034C125.459 76.2211 125.662 76.113 125.786 75.9812C125.835 75.9114 125.892 75.8157 125.915 75.7381C125.938 75.6604 125.908 75.567 125.871 75.4995C125.805 75.3386 125.679 75.1879 125.52 75.0552C125.36 74.9225 125.201 74.7898 125.033 74.683C124.338 74.248 123.545 73.9525 122.736 73.7088C121.927 73.4651 121.096 73.299 120.296 73.3119C120.098 73.3087 119.893 73.3313 119.706 73.3877C119.519 73.4441 119.331 73.5004 119.233 73.64C119.184 73.7098 119.135 73.7796 119.138 73.8652C119.141 73.9507 119.145 74.0362 119.2 74.1375C119.284 74.3321 119.403 74.5087 119.529 74.6594C119.369 74.5267 119.183 74.3862 119.073 74.1837C119.017 74.0824 118.962 73.9812 118.948 73.836C118.927 73.7168 118.965 73.5873 119.029 73.4657C119.094 73.3442 119.202 73.2642 119.278 73.2023C119.379 73.1482 119.48 73.0941 119.607 73.0479C119.828 72.9735 120.041 72.925 120.273 72.9102C120.718 72.8469 121.166 72.8691 121.606 72.9172C122.047 72.9654 122.472 73.0653 122.897 73.1651C123.34 73.2988 123.776 73.4583 124.17 73.6618ZM80.8281 62.3765C80.7453 62.4644 80.6364 62.5443 80.5352 62.5984C80.3328 62.7066 80.1011 62.7213 79.8956 62.744C80.1088 62.6954 80.3036 62.6132 80.4538 62.4893C80.5289 62.4274 80.6041 62.3654 80.6531 62.2956C80.7022 62.2258 80.699 62.1403 80.6959 62.0548C80.6897 61.8837 80.5637 61.733 80.4378 61.5823C80.3119 61.4316 80.1446 61.3248 79.985 61.1921C79.2974 60.7311 78.5116 60.4097 77.729 60.1739C76.9204 59.9302 76.0964 59.7383 75.2786 59.7174C75.0807 59.7141 74.8752 59.7368 74.6696 59.7594C74.464 59.782 74.2769 59.8384 74.1343 59.9364C74.0592 59.9984 74.0178 60.0423 73.9687 60.1121C73.9458 60.1897 73.9228 60.2674 73.9444 60.3867C73.9767 60.5656 74.0873 60.7681 74.2056 60.9447C74.0459 60.812 73.8678 60.6455 73.791 60.425C73.7357 60.3238 73.7218 60.1786 73.76 60.0492C73.7983 59.9197 73.8627 59.7982 73.9454 59.7103C74.1371 59.5425 74.3656 59.4422 74.5788 59.3937C74.7997 59.3193 75.0313 59.3045 75.2369 59.2819C75.6741 59.2445 76.1221 59.2667 76.5548 59.3407C76.9951 59.3889 77.4202 59.4888 77.8299 59.6404C78.2473 59.7662 78.6494 59.9438 79.0438 60.1472C79.4382 60.3507 79.825 60.58 80.1627 60.8791C80.3485 61.0197 80.5005 61.1782 80.6448 61.3627C80.7001 61.464 80.7815 61.5731 80.8368 61.6743C80.8921 61.7756 80.906 61.9207 80.9015 62.0321C80.9568 62.1334 80.9185 62.2628 80.8281 62.3765ZM69.3947 67.8966C68.899 67.7472 68.6225 67.241 68.7081 66.7593L68.7234 66.7075C68.8093 66.7052 68.8876 66.7288 68.9735 66.7265L68.9429 66.8301C68.9046 66.9595 68.9001 67.0709 68.9216 67.1902C68.963 67.1463 69.0229 67.1361 69.1011 67.1597C69.2055 67.1911 69.2608 67.2924 69.2302 67.3959C69.1996 67.4995 69.0983 67.5536 68.994 67.5221C69.0785 67.7167 69.2121 67.8416 69.3947 67.8966ZM70.5157 67.2759L70.531 67.2241C70.5571 67.2319 70.6016 67.2736 70.6277 67.2814L70.6124 67.3332C70.4639 67.7395 70.0514 67.9817 69.6034 67.9595C70.0068 67.9401 70.3748 67.6563 70.5157 67.2759ZM125.898 84.9242C125.402 84.7749 125.126 84.2686 125.211 83.7869L125.227 83.7352C125.313 83.7328 125.391 83.7564 125.477 83.7541L125.446 83.8577C125.408 83.9871 125.403 84.0985 125.425 84.2178C125.466 84.1739 125.526 84.1637 125.604 84.1873C125.709 84.2188 125.764 84.32 125.734 84.4235C125.703 84.5271 125.602 84.5812 125.497 84.5497C125.582 84.7444 125.715 84.8692 125.898 84.9242ZM127.019 84.3035L127.034 84.2517C127.06 84.2596 127.105 84.3012 127.131 84.309L127.116 84.3608C126.967 84.7671 126.555 85.0093 126.107 84.9871C126.51 84.9677 126.878 84.6839 127.019 84.3035ZM121.049 57.694C120.876 57.4161 120.702 57.1383 120.529 56.8604C120.355 56.5826 120.148 56.3228 119.907 56.081C120.163 56.271 120.397 56.5387 120.611 56.7726C120.819 57.0324 121.026 57.2923 121.233 57.5521C121.378 57.7366 121.522 57.921 121.633 58.1235C121.458 58.0426 121.316 57.9437 121.142 57.8627C121.123 57.829 121.086 57.7615 121.049 57.694ZM122.589 58.6372C122.483 58.3233 122.361 58.0612 122.188 57.7833C122.003 57.4458 121.759 57.1185 121.507 56.8171C121.23 56.5078 120.936 56.2503 120.591 55.977C119.926 55.4384 119.179 54.9876 118.372 54.5469C118.275 54.4896 118.17 54.4582 118.1 54.4087C118.237 54.619 118.355 54.7956 118.465 54.9981C118.676 55.3435 118.879 55.7147 119.055 56.0781C119.24 56.4156 119.39 56.7711 119.549 57.1007L119.522 57.0929C119.33 56.7813 119.112 56.4618 118.887 56.1682C118.642 55.8409 118.391 55.5395 118.146 55.2122C117.687 54.6509 117.187 54.1335 116.671 53.668C116.418 53.5635 116.172 53.4331 115.919 53.3286C115.815 53.2971 115.744 53.2477 115.64 53.2162C116.549 54.0822 117.384 55.2925 118.008 56.3545C117.334 56.0387 116.653 55.7487 115.971 55.4588C115.582 54.4676 114.925 53.4237 114.269 52.6623C113.964 52.542 113.659 52.4218 113.353 52.3016C112.482 51.9825 111.61 51.6635 110.705 51.3624C110.321 51.2186 109.93 51.1007 109.538 50.9828C109.46 50.9592 109.356 50.9278 109.277 50.9042C108.86 50.7784 108.443 50.6526 107.992 50.5449C107.574 50.4191 107.149 50.3192 106.698 50.2114C107.108 50.3631 107.517 50.5148 107.92 50.6923C108.322 50.8699 108.724 51.0474 109.126 51.225C109.826 51.5487 110.525 51.8723 111.225 52.196C111.225 52.196 111.225 52.196 111.244 52.2298L109.574 51.7266C108.739 51.4751 107.879 51.2156 107.036 50.99C107.848 51.3192 108.644 51.7002 109.449 52.0553L111.678 53.0656L109.905 52.531C109.07 52.2795 108.209 52.0201 107.382 51.7426C108.178 52.1236 108.982 52.4787 109.779 52.8597L112.113 53.9015C110.657 53.3498 109.141 52.8083 107.643 52.3006C107.565 52.277 107.513 52.2613 107.434 52.2377C107.252 52.1827 107.095 52.1355 106.913 52.0805C106.704 52.0176 106.469 51.9469 106.26 51.884C106.13 51.8447 106 51.8054 105.869 51.766C105.504 51.656 105.139 51.5459 104.773 51.4359C104.408 51.3258 104.043 51.2158 103.678 51.1057C103.547 51.0664 103.417 51.0271 103.287 50.9878C103.078 50.9249 102.843 50.8541 102.634 50.7912C102.452 50.7362 102.295 50.689 102.113 50.634C102.034 50.6104 101.982 50.5947 101.904 50.5711C99.168 49.8312 96.4536 49.2106 93.7869 48.7171L93.7945 48.6912C94.2947 48.7291 94.821 48.7749 95.3211 48.8129C95.8735 48.8666 96.4335 48.8944 96.9674 48.9143C96.438 48.7829 95.8902 48.6179 95.3684 48.4606C95.0032 48.3506 94.638 48.2405 94.2728 48.1305C94.7991 48.1763 95.2992 48.2142 95.8255 48.26C96.3778 48.3137 96.9302 48.3674 97.4825 48.4211C96.9684 48.238 96.4206 48.0729 95.8989 47.9156C95.5337 47.8056 95.1946 47.7034 94.8293 47.5933C95.3372 47.6054 95.8634 47.6512 96.3636 47.6892C96.6398 47.716 96.9159 47.7428 97.1921 47.7697C97.4683 47.7965 97.7368 47.8492 98.0053 47.902C97.7521 47.7975 97.4989 47.693 97.238 47.6144C96.9772 47.5357 96.7163 47.4571 96.4293 47.3707C96.1424 47.2842 95.8554 47.1977 95.5685 47.1112C95.2217 47.0349 94.8412 46.9766 94.4944 46.9003C93.7121 47.1439 92.9685 47.7374 92.3768 48.4895C91.7278 48.3785 91.0788 48.2675 90.4221 48.1823C90.8419 47.4349 91.7605 46.9223 92.6179 46.6168C92.3157 46.5821 92.0395 46.5552 91.7372 46.5205C90.8489 46.4502 89.9452 46.4316 89.1046 46.4884C88.6934 46.5337 88.2746 46.6048 87.882 46.6838C87.4816 46.7887 87.1258 46.9352 86.7884 47.1155C86.5185 47.2597 86.2409 47.4298 85.9894 47.6078C85.7133 47.5809 85.4371 47.5541 85.1609 47.5273C86.3185 46.4946 87.5439 45.9053 89.7178 45.8556C89.8037 45.8533 89.9157 45.8588 90.0016 45.8565C90.0277 45.8644 90.0614 45.8464 90.0875 45.8542C90.1734 45.8519 90.2333 45.8418 90.3115 45.8653C90.3376 45.8732 90.3713 45.8552 90.3974 45.863C90.4833 45.8607 90.5355 45.8765 90.6214 45.8742C90.6475 45.882 90.6813 45.864 90.7073 45.8718C90.7933 45.8695 90.8715 45.8931 90.9313 45.883C90.9574 45.8908 90.9835 45.8987 91.0173 45.8807C91.1032 45.8784 91.1891 45.876 91.2673 45.8996C91.2934 45.9075 91.2934 45.9075 91.3195 45.9154C91.4315 45.9209 91.5174 45.9186 91.6218 45.9501L91.6479 45.9579C91.7598 45.9635 91.8718 45.969 91.9838 45.9746C94.6857 46.2531 98.3177 47.0375 103.263 48.4715C103.289 48.4794 103.289 48.4794 103.315 48.4873C103.524 48.5501 103.707 48.6052 103.915 48.6681C103.942 48.6759 103.968 48.6838 103.994 48.6916C104.176 48.7467 104.385 48.8096 104.568 48.8646C104.62 48.8803 104.646 48.8882 104.698 48.9039C104.933 48.9747 105.168 49.0454 105.402 49.1162C105.637 49.1869 105.872 49.2577 106.107 49.3284C106.159 49.3441 106.185 49.352 106.237 49.3677C106.42 49.4227 106.628 49.4856 106.811 49.5407C106.837 49.5485 106.863 49.5564 106.889 49.5643C107.098 49.6271 107.281 49.6822 107.489 49.7451C107.515 49.7529 107.515 49.7529 107.542 49.7608C112.457 51.2983 115.928 52.6264 118.331 53.9145C118.428 53.9719 118.525 54.0292 118.621 54.0865L118.647 54.0944C118.744 54.1517 118.815 54.2012 118.919 54.2326C118.945 54.2405 118.945 54.2405 118.971 54.2484C119.042 54.2978 119.112 54.3473 119.191 54.3709C119.217 54.3787 119.243 54.3866 119.261 54.4204C119.332 54.4698 119.41 54.4934 119.455 54.535C119.481 54.5429 119.499 54.5766 119.525 54.5845C119.596 54.634 119.648 54.6497 119.719 54.6992C119.745 54.707 119.763 54.7408 119.815 54.7565C119.886 54.806 119.93 54.8476 120.009 54.8712C120.035 54.879 120.053 54.9128 120.079 54.9206C120.15 54.9701 120.247 55.0274 120.317 55.0769C122.101 56.3474 122.814 57.4926 123.221 58.9969C123.08 58.898 122.834 58.7676 122.589 58.6372ZM117.012 51.9381C116.894 51.7615 116.749 51.577 116.605 51.3926C116.461 51.2081 116.316 51.0236 116.164 50.8651C116.35 51.0056 116.502 51.1642 116.688 51.3047C116.866 51.4712 117.018 51.6298 117.17 51.7883C117.322 51.9469 117.492 52.1393 117.637 52.3237C117.7 52.3991 117.736 52.4666 117.799 52.5419C117.598 52.4532 117.397 52.3644 117.204 52.2497C117.149 52.1485 117.093 52.0472 117.012 51.9381ZM119.939 53.666C119.675 53.5018 119.385 53.3298 119.087 53.1837C119.069 53.15 119.069 53.15 119.05 53.1162C118.755 52.5762 118.385 52.0982 117.922 51.6483C117.458 51.1985 116.893 50.8027 116.313 50.4587C115.74 50.0888 115.1 49.755 114.453 49.4471C114.252 49.3583 114.051 49.2695 113.85 49.1807C113.968 49.3573 114.06 49.5261 114.178 49.7027C114.333 49.9468 114.481 50.2168 114.628 50.4868C114.776 50.7568 114.897 51.0189 115.011 51.3069C114.856 51.0628 114.675 50.8108 114.512 50.5926C114.323 50.3665 114.142 50.1146 113.953 49.8885C113.612 49.5038 113.245 49.1113 112.863 48.7706C112.74 48.7054 112.61 48.6661 112.487 48.6009C112.338 48.5278 112.155 48.4728 112.007 48.3998C112.677 49.1094 113.246 50.0701 113.607 50.771C113.145 50.6036 112.657 50.4283 112.143 50.2452C111.987 49.5217 111.527 48.678 111.031 48.0492C110.822 47.9864 110.621 47.8976 110.412 47.8347C109.462 47.492 108.531 47.1831 107.566 46.8923C107.331 46.8215 107.122 46.7586 106.887 46.6879C106.47 46.5621 106.053 46.4363 105.601 46.3286C105.184 46.2028 104.759 46.1029 104.308 45.9951C104.718 46.1468 105.127 46.2985 105.529 46.476C105.932 46.6536 106.334 46.8311 106.736 47.0087C107.339 47.275 107.968 47.5492 108.563 47.8415L107.181 47.4248C106.346 47.1732 105.478 46.9397 104.635 46.714C105.447 47.0433 106.251 47.3984 107.055 47.7535L108.865 48.5525L104.996 47.4149L109.062 49.2321C108.983 49.2085 108.905 49.1849 108.827 49.1613C108.775 49.1456 108.722 49.1299 108.67 49.1141C108.54 49.0748 108.383 49.0277 108.253 48.9884C108.175 48.9648 108.096 48.9412 108.018 48.9176C107.888 48.8783 107.757 48.839 107.653 48.8076C107.548 48.7761 107.444 48.7447 107.34 48.7132C107.235 48.6818 107.131 48.6503 107.001 48.611C106.87 48.5717 106.74 48.5324 106.609 48.4931C106.531 48.4695 106.427 48.4381 106.349 48.4145C106.114 48.3437 105.905 48.2808 105.67 48.2101C105.435 48.1393 105.227 48.0765 104.992 48.0057C104.914 47.9821 104.809 47.9507 104.731 47.9271C104.601 47.8878 104.47 47.8485 104.34 47.8092C104.236 47.7777 104.131 47.7463 104.001 47.707C103.896 47.6755 103.792 47.6441 103.688 47.6126C103.557 47.5733 103.427 47.534 103.322 47.5026C103.244 47.479 103.166 47.4554 103.088 47.4318C102.957 47.3925 102.801 47.3453 102.67 47.306C102.618 47.2903 102.566 47.2746 102.514 47.2589C102.357 47.2117 102.201 47.1645 102.044 47.1174C102.018 47.1095 101.992 47.1016 101.966 47.0938C100.471 46.6716 99.1257 46.3224 97.8767 46.0306L98.8693 46.1324C99.4217 46.1861 99.974 46.2398 100.526 46.2934C100.005 46.1362 99.4829 45.979 98.9427 45.788L98.3765 45.5892L99.3692 45.691C99.9215 45.7446 100.474 45.7983 101.019 45.8779C100.504 45.6948 99.9643 45.5038 99.4426 45.3466L98.8687 45.1736C99.2047 45.1903 99.533 45.2328 99.8614 45.2754C100.138 45.3022 100.414 45.3291 100.682 45.3818C100.958 45.4086 101.227 45.4614 101.495 45.5141C101.242 45.4096 100.989 45.3051 100.728 45.2265C100.467 45.1479 100.214 45.0434 99.9271 44.9569C99.6141 44.8626 99.3271 44.7761 99.0141 44.6817C98.6335 44.6235 98.2607 44.5393 97.8725 44.5069C97.3403 44.7694 96.7393 45.265 96.3438 45.7378C95.997 45.6615 95.6503 45.5852 95.3219 45.5427C95.636 44.9607 96.1911 44.6205 96.7494 44.3658C96.3873 44.3413 96.0252 44.3167 95.6632 44.2922C94.9835 44.2847 94.2962 44.3032 93.6719 44.397C93.0475 44.4907 92.4447 44.7038 91.931 45.0001C91.8973 45.0181 91.8973 45.0181 91.8635 45.0361C91.5275 45.0195 91.1992 44.9769 90.8893 44.9681C91.6928 44.3644 92.6559 43.8934 94.147 43.7507L94.4907 43.7415C96.0002 43.6325 97.9257 43.8463 100.439 44.3782L100.465 44.386C100.57 44.4175 100.682 44.423 100.812 44.4623C100.838 44.4702 100.864 44.478 100.89 44.4859C100.995 44.5174 101.08 44.5151 101.185 44.5465C101.211 44.5544 101.263 44.5701 101.289 44.5779C101.367 44.6015 101.472 44.633 101.558 44.6307C101.61 44.6464 101.662 44.6621 101.714 44.6778C101.766 44.6936 101.792 44.7014 101.845 44.7171C102.027 44.7722 102.218 44.8013 102.4 44.8563C102.426 44.8642 102.478 44.8799 102.504 44.8878C102.609 44.9192 102.687 44.9428 102.791 44.9743C102.844 44.99 102.87 44.9978 102.922 45.0136C103.026 45.045 103.104 45.0686 103.209 45.1C103.261 45.1158 103.313 45.1315 103.339 45.1394C103.444 45.1708 103.522 45.1944 103.626 45.2258C103.678 45.2415 103.731 45.2573 103.783 45.273C103.887 45.3044 103.965 45.328 104.07 45.3595C104.122 45.3752 104.174 45.3909 104.252 45.4145C104.331 45.4381 104.435 45.4695 104.513 45.4931C104.565 45.5088 104.644 45.5324 104.696 45.5481C104.774 45.5717 104.878 45.6032 104.957 45.6268C105.035 45.6503 105.113 45.6739 105.191 45.6975C105.27 45.7211 105.348 45.7447 105.426 45.7683C105.53 45.7997 105.635 45.8311 105.713 45.8547C105.765 45.8705 105.844 45.894 105.896 45.9098C106.052 45.9569 106.235 46.012 106.391 46.0591C106.548 46.1063 106.73 46.1613 106.887 46.2085C106.939 46.2242 107.017 46.2478 107.07 46.2635C107.174 46.295 107.278 46.3264 107.357 46.35C107.435 46.3736 107.513 46.3972 107.591 46.4207C107.67 46.4443 107.748 46.4679 107.826 46.4915C107.904 46.5151 108.009 46.5465 108.087 46.5701C108.139 46.5858 108.217 46.6094 108.27 46.6251C108.348 46.6487 108.452 46.6802 108.53 46.7038C108.583 46.7195 108.635 46.7352 108.713 46.7588C108.817 46.7902 108.896 46.8138 109 46.8453C109.052 46.861 109.104 46.8767 109.157 46.8924C109.261 46.9239 109.339 46.9475 109.443 46.9789C109.496 46.9946 109.548 47.0103 109.574 47.0182C109.678 47.0497 109.757 47.0732 109.861 47.1047C109.913 47.1204 109.939 47.1283 109.991 47.144C110.096 47.1754 110.174 47.199 110.278 47.2305C110.304 47.2383 110.33 47.2462 110.383 47.2619C110.565 47.3169 110.766 47.4057 110.949 47.4607C110.975 47.4686 111.027 47.4843 111.053 47.4922C111.105 47.5079 111.158 47.5236 111.21 47.5394C111.288 47.5629 111.366 47.5865 111.463 47.6439C111.489 47.6517 111.541 47.6674 111.567 47.6753C111.672 47.7067 111.75 47.7303 111.847 47.7877C111.873 47.7955 111.899 47.8034 111.925 47.8112C112.029 47.8427 112.126 47.9 112.256 47.9393L112.282 47.9472C114.647 48.8854 116.4 49.7801 117.603 50.7066L117.886 50.9045C119.045 51.7894 119.595 52.7164 119.939 53.666ZM116.203 48.6211C115.997 48.1643 115.683 47.5906 115.213 46.9697C114.579 46.3275 113.774 45.69 112.781 45.1088C112.928 45.3788 112.982 45.677 112.853 45.9201C112.637 46.3625 111.953 46.4665 111.365 46.1483C110.777 45.8302 110.472 45.2306 110.688 44.7882C110.824 44.5192 111.12 44.3828 111.464 44.3736C110.396 43.8544 109.174 43.3735 107.825 42.9388C105.269 42.6478 104.736 43.5866 104.715 44.4262C103.429 44.0668 102.292 43.7806 101.226 43.5438C101.786 42.4159 102.832 41.857 102.832 41.857C102.832 41.857 102.832 41.857 102.806 41.8492C102.452 41.7988 102.116 41.7821 101.78 41.7654C101.136 42.0224 100.283 42.6959 99.8645 43.2464C99.6221 43.2016 99.4058 43.1646 99.1633 43.1197C99.4545 42.6154 100.082 42.1277 100.764 41.7413C99.0274 41.7536 97.587 42.109 96.5627 42.7871C96.2267 42.7704 95.9244 42.7357 95.6406 42.7347C97.8239 40.8271 102.169 40.6421 107.542 42.2615C112.942 43.8888 116.45 46.44 117.24 49.2439C116.932 49.0382 116.563 48.8426 116.203 48.6211ZM77.3812 73.9404C77.4271 73.7851 77.631 73.48 78.5099 73.2938C80.2525 72.9731 84.0146 73.3174 90.4976 74.9327C90.5758 74.9563 90.6541 74.9799 90.7324 75.0035C90.7845 75.0192 90.8367 75.0349 90.8889 75.0507C91.0193 75.09 91.1497 75.1293 91.2878 75.1427C92.5031 75.4525 93.8151 75.8197 95.1532 76.1948C95.1792 76.2026 95.2053 76.2105 95.2314 76.2183C95.3619 76.2576 95.4923 76.297 95.6227 76.3363C95.6749 76.352 95.7531 76.3756 95.8053 76.3913C95.9097 76.4227 96.0401 76.462 96.1444 76.4935C96.2488 76.5249 96.3271 76.5485 96.4314 76.58C96.5097 76.6035 96.614 76.635 96.6923 76.6586C96.8749 76.7136 97.0575 76.7686 97.2662 76.8315C97.4749 76.8944 97.6575 76.9494 97.8401 77.0045C97.9183 77.0281 98.0227 77.0595 98.1009 77.0831C98.2053 77.1145 98.2835 77.1381 98.3879 77.1696C98.4922 77.201 98.6227 77.2403 98.727 77.2718C98.7792 77.2875 98.8574 77.3111 98.9096 77.3268C99.04 77.3661 99.1705 77.4054 99.3009 77.4447C99.327 77.4526 99.3531 77.4604 99.3792 77.4683C100.702 77.8951 101.973 78.3062 103.183 78.7275C103.314 78.7668 103.444 78.8061 103.567 78.8713C103.619 78.887 103.671 78.9027 103.723 78.9184C103.802 78.942 103.88 78.9656 103.984 78.997C110.284 81.2337 113.617 83.0277 114.901 84.2603C115.535 84.9025 115.54 85.2705 115.494 85.4258C114.575 88.5323 108.095 88.1582 95.0514 84.2275C82.2951 80.3833 76.4705 77.021 77.3812 73.9404Z" fill="#FCFCFC"/>
</g>
</svg>
