<svg width="123" height="122" viewBox="0 0 123 122" fill="none" xmlns="http://www.w3.org/2000/svg">
<path d="M100.081 31.3299C90.8447 24.1445 76.2315 22.9267 75.6049 22.8841C75.1289 22.8462 74.6525 22.9524 74.2417 23.1878C73.8308 23.4233 73.506 23.7764 73.3121 24.1983C73.0334 24.8043 72.7969 25.4276 72.6043 26.0642C78.7146 27.0621 86.2196 29.0693 93.0098 33.1419C93.2689 33.2973 93.4937 33.5004 93.6715 33.7398C93.8493 33.9791 93.9766 34.2499 94.0461 34.5368C94.1156 34.8236 94.1259 35.1209 94.0765 35.4116C94.0271 35.7024 93.919 35.9808 93.7582 36.2312C93.5975 36.4815 93.3873 36.6988 93.1396 36.8706C92.892 37.0424 92.6117 37.1654 92.3149 37.2326C92.018 37.2998 91.7104 37.3098 91.4096 37.262C91.1087 37.2143 90.8206 37.1098 90.5615 36.9544C78.8886 29.9507 64.3103 29.603 61.5 29.603C58.692 29.603 44.1044 29.9529 32.4385 36.9522C32.1794 37.1075 31.8913 37.2121 31.5904 37.2598C31.2896 37.3075 30.982 37.2975 30.6851 37.2304C30.0856 37.0947 29.5664 36.7345 29.2418 36.2289C28.9171 35.7234 28.8136 35.1139 28.9539 34.5345C29.0943 33.9552 29.467 33.4534 29.9902 33.1397C36.7804 29.0783 44.2854 27.0621 50.3957 26.0731C50.0429 24.9608 49.7227 24.2588 49.6995 24.1983C49.5064 23.7735 49.18 23.418 48.7665 23.1822C48.353 22.9464 47.8733 22.8421 47.3951 22.8841C46.7685 22.9289 32.1554 24.1445 22.7915 31.4263C17.9065 35.795 8.125 61.3409 8.125 83.4265C8.125 83.8212 8.23407 84.198 8.43365 84.5388C15.1775 95.9987 33.5895 98.9927 37.7853 99.125H37.8572C38.2234 99.1259 38.5846 99.0431 38.9113 98.8833C39.238 98.7235 39.5209 98.4912 39.7369 98.2055L43.9768 92.563C32.529 89.7081 26.6809 84.855 26.3468 84.5657C25.8852 84.172 25.6043 83.6172 25.566 83.0233C25.5277 82.4295 25.7351 81.8452 26.1425 81.3991C26.55 80.953 27.1241 80.6816 27.7386 80.6446C28.3531 80.6076 28.9577 80.808 29.4193 81.2018C29.5539 81.3251 40.3241 90.1544 61.5 90.1544C82.7108 90.1544 93.4809 81.2892 93.59 81.2018C94.053 80.8108 94.6577 80.6135 95.2712 80.653C95.8847 80.6925 96.4569 80.9657 96.8621 81.4126C97.0627 81.6329 97.2164 81.8891 97.3145 82.1668C97.4126 82.4445 97.453 82.7382 97.4336 83.031C97.4143 83.3238 97.3354 83.6101 97.2014 83.8734C97.0675 84.1367 96.8813 84.372 96.6532 84.5657C96.3191 84.855 90.471 89.7081 79.0232 92.563L83.2654 98.2055C83.4812 98.4909 83.7638 98.723 84.09 98.8828C84.4163 99.0426 84.777 99.1256 85.1428 99.125H85.2124C89.4128 98.9927 107.823 95.9965 114.569 84.5388C114.766 84.198 114.875 83.8212 114.875 83.4265C114.875 61.3409 105.093 35.7972 100.081 31.3299ZM46.4158 74.4559C41.9276 74.4559 38.2935 70.4416 38.2935 65.4853C38.2935 60.5291 41.9276 56.5148 46.4158 56.5148C50.9039 56.5148 54.538 60.5291 54.538 65.4853C54.538 70.4416 50.9039 74.4559 46.4158 74.4559ZM76.5842 74.4559C72.0961 74.4559 68.462 70.4416 68.462 65.4853C68.462 60.5291 72.0961 56.5148 76.5842 56.5148C81.0724 56.5148 84.7065 60.5291 84.7065 65.4853C84.7065 70.4416 81.0724 74.4559 76.5842 74.4559Z" fill="#FCFCFC"/>
</svg>
