<svg width="199" height="164" viewBox="0 0 199 164" fill="none" xmlns="http://www.w3.org/2000/svg">
<path d="M59.9256 31.275C59.8031 31.381 59.5825 31.5197 59.4437 31.5931C58.9944 31.8214 58.6758 32.5636 58.6758 33.3955C58.6758 33.9908 58.8637 34.3415 59.2721 34.5617C59.4273 34.6433 59.6806 34.8716 59.8276 35.0674C60.1544 35.4996 60.5955 35.7361 61.1183 35.7932C61.5921 35.834 61.8372 35.7198 62.3682 35.206C62.6868 34.8961 62.7848 34.7248 62.9318 34.2436C63.2014 33.3302 63.1851 33.1753 62.7195 32.4331C62.2783 31.7236 61.878 31.4055 61.1755 31.2016C60.5792 31.0222 60.2034 31.0466 59.9256 31.275Z" fill="#1E2022"/>
<path d="M66.7225 37.7021C66.6327 37.751 66.4039 37.9467 66.2242 38.1262C65.4563 38.8846 65.2848 40.1406 65.8158 41.1845C66.0527 41.6412 66.2732 41.8451 66.8124 42.1143C67.5884 42.5057 68.1766 42.6607 68.5033 42.571C68.969 42.4486 69.5408 41.8614 69.8921 41.1601C70.3168 40.3282 70.3659 39.8144 70.0963 39.2272C69.794 38.5666 69.5163 38.2974 68.7893 37.9304C68.1929 37.6368 68.0786 37.6042 67.5067 37.6042C67.1636 37.6042 66.8124 37.6531 66.7225 37.7021Z" fill="#1E2022"/>
<path d="M73.8287 43.6053C73.5019 43.7684 73.216 44.0457 73.216 44.1843C73.216 44.2496 73.1262 44.4208 73.0118 44.5676C72.6769 45.008 72.5625 45.3832 72.5625 46.0601C72.5625 46.5739 72.6033 46.786 72.7749 47.1448C73.1752 48.0093 73.4856 48.2785 74.3188 48.4987C75.1847 48.7352 75.5523 48.621 76.3447 47.8789C76.8267 47.4384 76.9084 47.2998 77.0636 46.8268C77.2678 46.158 77.2188 45.5626 76.9002 44.8857C76.6225 44.3067 76.4183 44.1028 75.7402 43.7521C75.2909 43.5156 75.1357 43.4748 74.6456 43.4748C74.2862 43.4748 73.9839 43.5237 73.8287 43.6053Z" fill="#1E2022"/>
<path d="M80.3648 50.3177C79.9073 50.4645 79.5315 50.7418 79.3518 51.0598C79.1721 51.3861 79.1639 51.4676 79.1966 52.4055C79.2456 53.6044 79.3763 53.9551 80.0462 54.5586C80.5445 55.0153 81.198 55.3008 81.7535 55.3008C82.0394 55.3008 82.211 55.2355 82.6276 54.9501C83.0606 54.6646 83.1831 54.5178 83.4037 54.0774C83.6651 53.5555 83.8529 53.0009 83.951 52.4544C84.0163 52.0711 83.7713 51.5655 83.2484 51.0109C82.6439 50.3584 82.3499 50.2443 81.3451 50.2524C80.8958 50.2606 80.4546 50.285 80.3648 50.3177Z" fill="#1E2022"/>
<path d="M27.3561 0.0661926C26.8823 0.196686 26.2288 0.881744 26.1063 1.37109C25.7468 2.79018 26.3187 5.17162 27.5277 7.26762C27.9116 7.93639 28.5079 9.0374 28.8429 9.71431C29.5127 11.0437 29.6843 11.3373 31.2527 13.8085C31.8327 14.7219 32.7149 16.2225 33.2051 17.1523C34.4712 19.5256 34.5121 19.599 35.4433 21.0099C35.9008 21.7031 36.489 22.6084 36.7585 23.0243C38.9887 26.4986 39.487 27.2327 40.9819 29.2634C42.6647 31.5551 42.9343 31.9221 43.4652 32.7051C43.7757 33.1455 44.6007 34.271 45.3032 35.1926C46.0139 36.1142 46.8553 37.2396 47.1821 37.6882C49.0855 40.3306 52.353 44.2943 54.5913 46.6675C54.9344 47.0264 55.5961 47.7604 56.0699 48.2905C56.5437 48.8206 57.2217 49.5873 57.5811 49.9951C57.9406 50.4028 58.4389 50.99 58.6839 51.3081C59.5662 52.4499 63.7568 56.7805 64.8923 57.7429C65.2763 58.061 66.3056 59.007 67.1796 59.8389C69.4669 62.0083 69.5895 62.1143 69.9081 62.1143C70.1531 62.1143 70.3002 62.2448 71.403 63.3948C72.0728 64.1043 72.7427 64.8628 72.8979 65.0912C73.0449 65.3114 73.6903 66.0291 74.3274 66.6815C74.9646 67.334 75.5691 68.0027 75.6671 68.1658C75.7652 68.3371 75.8877 68.4757 75.9286 68.4757C75.9694 68.4757 76.239 68.7204 76.5249 69.014C76.8108 69.3076 77.3826 69.8296 77.7829 70.1721C78.1913 70.5228 79.0736 71.3057 79.7516 71.9256C80.4296 72.5536 81.1158 73.1652 81.271 73.2876C81.9572 73.834 85.3637 76.9331 86.3358 77.8955C86.6544 78.2136 87.2752 78.8089 87.7245 79.233C88.9743 80.4074 89.4726 81.1496 89.4808 81.8102C89.4808 82.3403 89.44 82.3648 88.5741 82.3159C88.1493 82.2914 87.5529 82.2262 87.2343 82.1691C86.9239 82.112 86.5563 82.0712 86.4175 82.063C86.2459 82.063 85.6087 81.696 84.3344 80.8886C83.3214 80.2443 82.3902 79.6327 82.2513 79.5429C82.1206 79.4451 81.6631 79.127 81.2383 78.8334C79.6127 77.7079 78.3874 76.8271 77.1947 75.9382C76.6474 75.5304 75.7243 74.8616 75.1443 74.4538C74.2131 73.8014 73.6658 73.467 71.7134 72.3741C71.4928 72.2518 71.1742 72.1458 71.019 72.1458C70.8638 72.1458 70.5289 72.0724 70.2838 71.9827C69.8019 71.8114 69.1402 71.7706 68.9033 71.9011C68.8216 71.9419 68.7072 72.0968 68.65 72.2437C68.5929 72.3904 68.4867 72.578 68.4213 72.6514C68.2579 72.8472 68.3396 73.2142 68.7317 73.94C68.9114 74.2744 69.3526 75.1389 69.712 75.8566C70.7985 78.0342 71.1171 78.5969 71.7869 79.4859C72.759 80.7745 72.8815 80.9294 73.6004 81.7694C73.9598 82.1935 74.695 83.0743 75.226 83.7268C77.2274 86.1653 78.2485 87.2663 82.6189 91.6786C85.2575 94.3373 85.9845 95.1121 87.8879 97.2244C89.4645 98.986 95.7954 105.225 98.7934 107.982C99.9043 109.001 102.265 111.26 103.196 112.198C104.495 113.495 109.977 118.747 110.058 118.78C110.091 118.788 111.602 120.321 113.416 122.189C115.989 124.831 116.969 125.785 117.9 126.536C118.554 127.066 119.257 127.604 119.461 127.726C119.665 127.857 120.237 128.265 120.727 128.624C122.745 130.108 124.044 130.956 125.677 131.837C126.2 132.114 126.878 132.546 127.189 132.783C127.94 133.37 128.455 133.705 129.672 134.39C131.126 135.213 132.123 135.597 132.833 135.597C133.168 135.597 133.568 135.23 133.961 134.545C134.238 134.055 134.426 133.843 134.769 133.607C135.006 133.444 135.357 133.093 135.537 132.84C135.888 132.351 137.563 130.663 138.151 130.222C138.405 130.026 138.494 129.896 138.494 129.733C138.494 129.455 138.355 129.317 138.078 129.317C137.874 129.317 137.816 129.235 137.441 128.485C136.885 127.368 135.202 124.986 134.287 124.016C133.879 123.592 133.274 122.931 132.939 122.548C132.605 122.173 131.992 121.528 131.583 121.12C131.183 120.721 130.546 120.077 130.187 119.693C129.051 118.502 124.517 114.041 123.839 113.446C123.488 113.136 123.022 112.63 122.802 112.312C121.168 109.972 120.89 109.49 120.8 108.838C120.76 108.52 120.776 108.455 120.988 108.275C121.209 108.071 121.536 107.933 122.042 107.827C122.287 107.778 123.153 108.088 123.913 108.487C124.052 108.561 124.689 108.895 125.342 109.238C125.996 109.572 127.099 110.208 127.793 110.64C129.361 111.627 131.306 112.785 132.155 113.242C132.703 113.544 132.833 113.585 132.964 113.503C133.095 113.413 133.356 113.544 134.884 114.465C135.856 115.053 137.155 115.876 137.759 116.3C138.364 116.733 139.27 117.32 139.761 117.622C141.19 118.478 141.95 118.959 142.13 119.122C142.448 119.4 143.861 120.248 144.784 120.713C145.299 120.974 145.814 121.243 145.928 121.324C146.042 121.398 146.778 121.806 147.562 122.221C148.346 122.637 149.253 123.151 149.563 123.363C149.882 123.575 150.266 123.812 150.421 123.893C150.576 123.975 151.025 124.244 151.418 124.497C151.81 124.75 152.398 125.1 152.725 125.288C153.051 125.476 153.738 125.859 154.252 126.144C155.012 126.577 155.273 126.764 155.682 127.237C155.951 127.547 156.441 128.077 156.752 128.403C157.544 129.243 161.024 132.049 162.307 132.889C162.895 133.272 163.965 134.006 164.7 134.512C165.427 135.026 166.44 135.654 166.947 135.915C167.453 136.168 168.303 136.649 168.842 136.983C169.381 137.309 170.067 137.717 170.361 137.88C170.664 138.052 171.031 138.28 171.178 138.386C171.333 138.5 171.938 138.883 172.518 139.226C173.106 139.577 173.735 139.968 173.923 140.099C174.119 140.229 174.756 140.596 175.353 140.914C175.949 141.232 176.815 141.722 177.272 142.015C177.738 142.301 178.326 142.627 178.579 142.741C179.102 142.961 179.127 142.978 180.523 143.736C183.138 145.155 185.131 146.069 185.49 146.02C185.931 145.954 185.997 144.902 185.605 144.234C185.025 143.247 184.42 142.064 183.987 141.061C183.881 140.816 183.611 140.343 183.391 140.001C183.17 139.666 182.819 139.055 182.607 138.655C182.402 138.247 181.953 137.57 181.618 137.146C181.071 136.445 179.764 134.536 178.726 132.905C177.73 131.348 174.34 127.425 172.101 125.239C170.337 123.518 167.502 121.161 165.738 119.954C165.313 119.669 164.48 118.943 163.777 118.258C163.107 117.597 162.405 116.969 162.225 116.855C162.045 116.741 161.621 116.439 161.286 116.186C160.951 115.933 160.469 115.575 160.216 115.387C159.734 115.044 158.925 114.074 157.16 111.741C156.213 110.502 154.367 108.161 153.002 106.481C152.725 106.147 152.12 105.372 151.646 104.768C150.413 103.17 149.114 101.555 148.052 100.291C147.26 99.353 147.072 99.0839 147.072 98.8963C147.072 98.7984 146.876 98.4967 146.631 98.2194C145.936 97.4201 144.302 94.7695 143.861 93.7175C143.747 93.4483 143.396 92.698 143.085 92.0456C142.505 90.8304 142.007 89.2645 142.007 88.6202C142.007 88.2369 142.399 87.4702 142.636 87.3887C142.857 87.3071 143.379 87.5763 144.008 88.0738C144.245 88.2613 144.874 88.7262 145.397 89.1095C145.928 89.4847 146.81 90.2187 147.349 90.7407C148.354 91.703 150.086 93.1303 150.748 93.5543C150.952 93.6848 151.524 94.0926 152.014 94.4515C154.032 95.9358 155.331 96.784 156.964 97.6648C157.487 97.9421 158.165 98.3743 158.476 98.6108C159.227 99.1981 159.742 99.5324 160.959 100.218C162.413 101.041 163.41 101.425 164.12 101.425C164.455 101.425 164.855 101.058 165.248 100.372C165.525 99.8831 165.713 99.6711 166.056 99.4346C166.293 99.2715 166.644 98.9208 166.824 98.6679C167.175 98.1786 168.85 96.4904 169.438 96.05C169.691 95.8542 169.781 95.7237 169.781 95.5606C169.781 95.2833 169.642 95.1447 169.365 95.1447C169.161 95.1447 169.103 95.0631 168.728 94.3047C168.172 93.1955 166.489 90.814 165.574 89.8435C165.166 89.4194 164.561 88.7588 164.226 88.3755C163.892 88.0004 163.279 87.3561 162.87 86.9483C162.47 86.5486 161.833 85.9044 161.474 85.521C160.314 84.3058 155.796 79.8692 155.036 79.1923C154.636 78.8416 153.974 78.2462 153.574 77.871C153.174 77.4959 152.275 76.7211 151.573 76.1421C149.547 74.4783 147.497 72.7493 146.745 72.0724C146.361 71.7299 145.43 70.9143 144.662 70.2618C143.902 69.6012 142.906 68.7449 142.464 68.3453C142.015 67.9456 141.157 67.1953 140.553 66.6815C139.164 65.4908 138.601 65.0014 137.245 63.7862C136.648 63.248 135.243 62.0573 134.124 61.1357C133.013 60.2141 131.502 58.9744 130.783 58.3791C130.056 57.7755 129.19 57.0823 128.855 56.8295C127.801 56.0384 126.331 54.864 125.065 53.7956C123.006 52.0666 122.328 51.5283 120.809 50.3947C120 49.7993 119.044 49.0816 118.685 48.8125C117.5 47.9317 117.312 47.8012 115.54 46.6675C114.576 46.0477 113.677 45.4605 113.538 45.3708C113.408 45.2729 112.95 44.9549 112.525 44.6613C110.9 43.5358 109.674 42.655 108.482 41.766C107.934 41.3582 107.011 40.6895 106.431 40.2817C105.5 39.6292 104.953 39.2948 103 38.202C102.78 38.0797 102.461 37.9736 102.306 37.9736C102.151 37.9736 101.816 37.9002 101.571 37.8105C101.089 37.6393 100.427 37.5985 100.19 37.729C100.109 37.7697 99.9942 37.9247 99.937 38.0715C99.8798 38.2183 99.7736 38.4059 99.7083 38.4793C99.5449 38.675 99.6266 39.042 100.019 39.7679C100.198 40.1023 100.64 40.9668 100.999 41.6845C102.085 43.862 102.404 44.4247 103.074 45.3137C104.046 46.6023 104.169 46.7573 104.887 47.5973C105.247 48.0214 105.982 48.9022 106.513 49.5546C107.755 51.0634 108.947 52.4173 110.205 53.7222C110.753 54.2931 111.251 54.864 111.316 54.9945C111.382 55.1168 111.512 55.2881 111.602 55.3696C111.823 55.5735 112.509 57.1149 112.566 57.5635C112.664 58.273 112.231 58.4035 110.785 58.0854C110.238 57.9631 109.732 57.8326 109.65 57.7837C109.568 57.7429 109.446 57.7103 109.364 57.7103C109.168 57.7103 107.518 56.1281 102.412 51.039C99.9534 48.5841 97.6906 46.3739 97.3883 46.1293C94.57 43.8212 94.1371 43.4461 92.585 41.9699C90.747 40.2164 89.587 39.1317 88.5659 38.2183C88.1411 37.835 87.7081 37.4109 87.6019 37.2804C87.4304 37.0602 87.12 36.7829 86.0907 35.9347C85.9028 35.7798 85.5352 35.5025 85.282 35.323C85.0206 35.1436 84.4569 34.7114 84.024 34.3688C83.591 34.0181 82.7333 33.3575 82.1288 32.9008C80.5277 31.6856 79.9232 31.1963 78.7387 30.1442C76.9088 28.5131 76.3615 28.0727 73.0449 25.5526C72.2035 24.9164 71.1252 24.0846 70.6514 23.7012C70.1695 23.3179 69.3526 22.6655 68.8298 22.2495C67.196 20.9446 64.0428 18.6203 63.136 18.0657C61.1918 16.8668 60.3177 16.2878 58.7166 15.1786C57.7445 14.5017 56.4538 13.5883 55.8412 13.1478C55.1795 12.6667 54.2891 12.1121 53.6274 11.7695C53.0147 11.4596 52.0753 10.9377 51.5361 10.6114C50.997 10.2934 49.9595 9.72247 49.2407 9.35547C48.5136 8.98846 47.5252 8.42572 47.0432 8.1158C46.21 7.57753 44.3393 6.57439 44.1596 6.57439C44.1187 6.57439 43.89 6.44389 43.6613 6.28894C43.0813 5.88931 41.1779 4.72307 40.6306 4.42946C40.3855 4.29897 39.8546 4.06245 39.4461 3.9075C39.0458 3.75253 38.5312 3.52419 38.3025 3.41C37.2977 2.90436 34.6101 1.80334 33.058 1.26508C32.4208 1.04488 31.6856 0.767578 31.4242 0.653397C30.2888 0.147751 29.8558 0.0417175 28.7448 0.00909424C28.0995 -0.0153656 27.5522 0.00909424 27.3561 0.0661926ZM30.1907 1.06117C30.5175 1.16719 31.0485 1.36295 31.3589 1.50159C31.6775 1.63208 32.2983 1.86043 32.7476 2.00723C33.6053 2.29268 35.2963 2.93698 36.056 3.27136C36.3011 3.37738 37.0036 3.69545 37.6081 3.96458C38.2126 4.24187 38.9315 4.55179 39.2011 4.64966C40.0588 4.97588 42.0929 6.15846 43.1957 6.95772C43.4571 7.15344 43.7185 7.30841 43.7757 7.30841C43.9635 7.30841 45.7362 8.26262 46.6021 8.82535C47.0759 9.13527 47.8193 9.56752 48.2522 9.79588C48.6852 10.0161 49.0446 10.2281 49.0446 10.2607C49.0446 10.2934 48.5218 10.7175 47.8846 11.1987C47.2393 11.6798 46.3897 12.3486 45.9813 12.6911C45.581 13.0337 45.0337 13.4496 44.7723 13.6209C44.5109 13.7921 43.8655 14.3467 43.3345 14.8442C42.8036 15.3417 42.0765 16.0186 41.7089 16.3449C41.3495 16.6711 40.7613 17.2746 40.4182 17.6905C40.067 18.0983 39.5605 18.6774 39.2827 18.971C38.8171 19.4766 37.5183 21.0425 37.1588 21.54L36.9954 21.7602L36.4645 20.9691C35.5414 19.5745 34.8879 18.4572 33.7442 16.2878C33.2622 15.3743 31.6611 12.7156 30.4685 10.8561C30.3214 10.6277 29.9538 9.94267 29.6516 9.31468C29.3493 8.69485 28.8102 7.6754 28.4507 7.04742C27.6257 5.62834 27.5522 5.44891 27.2254 4.25003C27.013 3.45078 26.964 3.10825 26.9558 2.3987L26.9477 1.5179L27.2499 1.21614C27.4623 1.01224 27.6584 0.898056 27.9034 0.857285C28.4834 0.751266 29.5454 0.849121 30.1907 1.06117ZM51.0542 11.3536C51.626 11.688 52.5736 12.21 53.1618 12.5036C53.7581 12.8053 54.6322 13.3436 55.1305 13.7106C56.6826 14.8524 60.2769 17.2664 61.6738 18.1065C62.409 18.555 63.0053 18.9547 62.989 19.0036C62.9726 19.0444 62.8746 19.1096 62.7602 19.1341C62.3191 19.2564 59.7949 21.0099 57.8671 22.5513C55.7268 24.2477 52.1243 27.6649 50.6702 29.3613C50.2945 29.8017 49.6328 30.5357 49.208 30.9924C48.2032 32.0608 47.1249 33.4065 46.6266 34.222C46.406 34.5809 46.21 34.8745 46.1855 34.8663C46.1365 34.8663 44.8703 33.1129 43.5224 31.2044C43.0078 30.4623 42.199 29.345 41.7334 28.717C40.4917 27.0451 39.0132 24.8757 38.0411 23.3179L37.5264 22.4779L37.9104 21.9723C38.5475 21.1241 39.2419 20.2759 39.8546 19.5826C40.1732 19.2238 40.9002 18.3756 41.4638 17.7068C42.8281 16.0839 44.0289 14.9421 45.3931 13.9797C45.6055 13.8329 46.0956 13.4659 46.4877 13.156C47.6641 12.2507 49.8615 10.7338 49.9922 10.7338C50.0085 10.7338 50.4823 11.0111 51.0542 11.3536ZM64.6064 19.9904C65.0149 20.284 65.652 20.7489 66.036 21.0262C66.4199 21.3035 67.2613 21.9559 67.9148 22.4779C68.5683 22.9999 69.23 23.5137 69.3852 23.6197C69.5404 23.7257 70.0551 24.1335 70.5289 24.5168C71.0027 24.9083 72.0892 25.7402 72.9387 26.3845C75.2179 28.0808 77.1376 29.6059 78.2485 30.5928C79.335 31.5633 80.2908 32.3381 81.5161 33.2434C82.4555 33.9366 82.4882 33.9611 83.5828 34.8337C84.0321 35.1926 84.6121 35.633 84.8654 35.8124C85.4535 36.2202 86.1234 36.7584 86.6625 37.2559C86.8994 37.4761 87.1281 37.6474 87.1772 37.6474C87.2262 37.6474 87.7898 38.2265 88.4352 38.9278C90.0771 40.7221 92.487 43.2503 93.0833 43.7968C93.361 44.0496 93.794 44.4166 94.0472 44.6042C94.3005 44.7836 94.6681 45.0854 94.8723 45.2729C95.0765 45.4524 95.4441 45.7623 95.6892 45.9499C95.9342 46.1456 96.4162 46.5371 96.7511 46.8307C97.0861 47.1161 97.6416 47.5647 97.9765 47.8175C98.9486 48.5515 99.5939 49.155 103.441 52.98C107.06 56.5767 109.772 59.1865 111.169 60.4261C112.125 61.2743 114.331 63.4519 116.487 65.6784C120.408 69.7317 121.111 70.4657 121.911 71.371C122.369 71.8848 123.406 73.0021 124.223 73.8422C125.702 75.3591 128.21 78.0994 128.577 78.5969C128.683 78.7437 128.904 78.9965 129.059 79.1515C129.214 79.3146 129.819 80.1057 130.391 80.9131C132.237 83.5066 133.732 85.3498 135.488 87.1929C135.79 87.5029 136.223 88.0004 136.46 88.294C136.689 88.5876 137.163 89.1177 137.506 89.4765C137.849 89.8435 138.609 90.6672 139.189 91.3115C140.7 92.9835 141.108 93.432 142.17 94.533C143.567 95.9929 147.039 100.103 148.526 102.069C150.307 104.418 150.584 104.768 151.932 106.399C153.517 108.3 153.484 108.259 155.543 110.967C157.389 113.389 158.712 115.053 159.652 116.145C160.395 117.01 161.939 118.984 162.707 120.052C163.091 120.59 163.165 120.745 163.165 121.039C163.165 121.235 163.132 121.496 163.083 121.61C163.001 121.822 162.56 122.385 162.021 122.947C161.866 123.119 161.531 123.502 161.286 123.804C160.297 125.027 159.815 125.557 158.958 126.397C158.467 126.886 158.002 127.302 157.92 127.327C157.83 127.351 157.528 127.213 157.103 126.935C156.727 126.691 155.821 126.152 155.077 125.728C152.422 124.236 151.998 123.983 150.029 122.743C149.596 122.466 148.632 121.92 147.889 121.528C147.145 121.137 146.451 120.753 146.337 120.672C146.222 120.598 145.675 120.297 145.111 120.003C144 119.432 143.314 119.016 142.595 118.502C142.342 118.315 141.999 118.103 141.844 118.021C141.688 117.94 141.394 117.76 141.19 117.614C140.986 117.467 140.545 117.198 140.21 117.002C139.875 116.814 138.976 116.227 138.208 115.705C137.449 115.175 136.199 114.368 135.431 113.903C134.671 113.438 133.691 112.834 133.266 112.549C132.841 112.272 132.163 111.856 131.771 111.627C131.371 111.399 130.513 110.836 129.852 110.379C129.19 109.923 128.3 109.311 127.875 109.017C127.442 108.724 126.911 108.324 126.69 108.128C126.462 107.941 125.914 107.525 125.465 107.215C125.016 106.905 124.215 106.342 123.684 105.975C123.153 105.6 122.206 104.948 121.593 104.524C119.886 103.349 118.562 102.411 118.154 102.077C117.95 101.914 117.533 101.604 117.214 101.392C116.487 100.911 116.079 100.617 114.804 99.6792C114.241 99.2633 112.844 98.3091 111.7 97.5588C109.527 96.1315 107.428 94.6798 106.799 94.166C106.595 94.0029 106.121 93.6604 105.745 93.3994C105.369 93.1384 104.749 92.6817 104.356 92.3799C103.972 92.0863 103.294 91.5807 102.837 91.2708C101.244 90.1616 98.7362 88.1308 97.1514 86.671C96.5387 86.1082 95.73 85.3824 95.3543 85.0562C94.9785 84.7381 94.5129 84.3303 94.3331 84.159C92.1112 82.1201 91.474 81.5248 90.7225 80.7745C90.2405 80.3014 89.7177 79.7632 89.5462 79.5919C89.3828 79.4206 88.8191 78.8987 88.2963 78.4256C87.7735 77.9526 87.0301 77.2594 86.638 76.8761C85.6986 75.9545 82.7169 73.3202 81.9082 72.6922C81.7857 72.5943 81.0913 71.9827 80.3724 71.3302C79.6536 70.6778 78.804 69.9275 78.4936 69.6583C77.6113 68.908 76.386 67.7336 76.2308 67.5052C75.8305 66.8936 70.3165 61.3722 69.6303 60.891C69.3444 60.6871 68.4458 59.896 67.6453 59.1375C66.8365 58.3709 65.7664 57.3922 65.2599 56.96C64.1653 56.0221 63.6752 55.549 61.4777 53.2492C60.5628 52.2949 59.5417 51.1613 59.1986 50.7209C58.8555 50.2805 58.3735 49.7015 58.1203 49.4323C57.8671 49.1632 57.2789 48.5026 56.8051 47.9643C56.3313 47.426 55.6696 46.692 55.3347 46.3332C54.2237 45.1588 51.5198 42.027 50.6866 40.9504C49.2162 39.0665 48.6117 38.2591 48.0643 37.4843C47.7294 37.0113 47.321 36.4567 47.1494 36.2528C46.9779 36.0407 46.839 35.8287 46.839 35.7879C46.839 35.6656 47.7294 34.2791 48.1297 33.7735C48.3012 33.5451 48.726 32.9579 49.0609 32.4686C49.8043 31.3676 50.5885 30.3155 51.1277 29.6712C51.3564 29.4021 51.724 28.9535 51.9446 28.6762C52.4674 28.0319 54.9589 25.5852 56.0617 24.6391C57.042 23.791 59.0842 22.2006 59.6969 21.801C59.9256 21.646 60.4484 21.3035 60.8569 21.0344C61.2653 20.7734 61.9679 20.3901 62.4253 20.1943C62.8828 19.9986 63.2585 19.811 63.2585 19.7702C63.2585 19.7131 63.6833 19.4929 63.8304 19.4685C63.8549 19.4603 64.2061 19.6968 64.6064 19.9904ZM101.22 38.414C101.391 38.4793 101.734 38.5771 101.979 38.6342C102.224 38.6832 102.674 38.8544 102.976 39.0012C103.662 39.3438 105.516 40.4529 105.9 40.7466C106.505 41.2196 108.751 42.8589 109.454 43.3482C109.862 43.6255 110.344 43.9762 110.54 44.1148C111.594 44.9059 112.052 45.224 113.538 46.219C114.437 46.8225 115.376 47.4423 115.621 47.5891C116.324 48.0295 118.293 49.3508 118.971 49.8401C119.306 50.0848 120 50.5904 120.515 50.9574C121.527 51.6996 122.696 52.6456 124.86 54.4643C125.645 55.125 126.854 56.0873 127.548 56.6174C128.242 57.1394 129.092 57.8 129.427 58.0773C131.681 59.9531 132.278 60.4506 133.152 61.152C133.683 61.5842 134.769 62.4569 135.554 63.0767C136.338 63.7047 137.441 64.6426 138.004 65.1727C138.568 65.7028 139.777 66.7794 140.7 67.5705C141.623 68.3534 143.02 69.5523 143.804 70.2211C144.588 70.8898 145.806 71.9501 146.5 72.5617C147.758 73.6709 148.338 74.1684 151.246 76.6151C153.394 78.4256 154.505 79.4777 158.247 83.2782C160.06 85.1133 161.972 87.0543 162.495 87.5844C163.017 88.1227 163.655 88.8078 163.9 89.1177C164.145 89.4276 164.529 89.8762 164.741 90.1208L165.133 90.5694L164.888 91.0016C164.749 91.2381 164.333 91.7438 163.957 92.1271C163.001 93.0976 162.16 94.0192 161.465 94.8348C161.106 95.2589 160.526 95.7971 159.995 96.2049C158.998 96.9797 158.263 97.6566 158.263 97.8116C158.263 97.8687 158.247 97.9176 158.222 97.9176C158.124 97.9176 157.005 97.1918 156.066 96.5148C155.502 96.0989 154.873 95.6585 154.669 95.5199C154.195 95.2099 152.708 94.0763 152.177 93.6359C151.957 93.4483 151.597 93.1873 151.377 93.0487C150.552 92.543 148.697 90.8222 145.397 87.5273C143.51 85.6352 140.496 82.6747 138.69 80.9376C136.893 79.2086 135.186 77.5367 134.9 77.2267C134.614 76.925 134.01 76.3215 133.552 75.8974C131.935 74.3804 129.615 72.2437 128.692 71.4199C127.025 69.9274 122.026 64.977 120.498 63.2969C117.745 60.2875 116.904 59.3904 114.747 57.221C113.408 55.8671 112.542 54.9211 112.419 54.6927C112.305 54.4725 112.133 54.2768 111.978 54.2034C111.57 54.0076 109.111 51.357 107.363 49.2284C106.97 48.7554 106.309 47.9888 105.884 47.5157C104.103 45.5258 102.902 43.7804 102.012 41.8883C101.857 41.554 101.432 40.6813 101.073 39.9555C100.378 38.5608 100.321 38.2999 100.713 38.2999C100.827 38.2999 101.056 38.3488 101.22 38.414ZM115.54 59.1457C116.103 59.7247 117.329 61.046 118.268 62.0736C121.184 65.2706 125.089 69.169 129.713 73.4915C131.24 74.9187 133.283 76.8597 134.247 77.8058C135.21 78.7519 137.253 80.7174 138.78 82.1772C140.308 83.6289 141.909 85.1703 142.334 85.6026L143.11 86.3774L142.742 86.4263C142.032 86.5079 141.607 86.8912 141.313 87.7149C141.133 88.2287 141.166 88.7507 141.402 89.3134C141.517 89.5826 141.697 90.1127 141.803 90.496C141.901 90.8793 142.081 91.4257 142.195 91.7193C142.407 92.2739 143.812 94.9979 143.992 95.2181C144.049 95.2915 144.164 95.4546 144.245 95.5933C144.368 95.8053 144.343 95.789 144.074 95.5117C143.486 94.8837 141.141 92.331 140.782 91.9232C140.577 91.6949 140.177 91.2545 139.883 90.9445C139.589 90.6265 138.805 89.7701 138.127 89.0361C137.457 88.3021 136.444 87.2256 135.888 86.6302C134.916 85.6026 134.059 84.6076 132.784 83.0336C130.178 79.8121 129.566 79.0128 129.623 78.866C129.729 78.5969 129.533 78.3604 127.066 75.6527C126.633 75.1797 125.457 73.9482 124.444 72.9206C123.431 71.8848 122.271 70.6778 121.871 70.2292C120.466 68.6715 117.525 65.6457 114.331 62.4569L111.112 59.2599H111.586C112.158 59.2599 112.566 59.0804 112.811 58.7134C113.015 58.4117 113.195 57.433 113.114 57.0415C113.064 56.7805 113.081 56.7887 113.792 57.433C114.192 57.8 114.976 58.5748 115.54 59.1457ZM69.9326 72.5862C70.1041 72.6514 70.4472 72.7493 70.6923 72.8064C70.9373 72.8553 71.3866 73.0266 71.6889 73.1734C72.3751 73.5159 74.2294 74.6251 74.6134 74.9187C75.2179 75.3917 77.4643 77.031 78.1668 77.5203C78.5753 77.7976 79.0573 78.1483 79.2533 78.287C80.3071 79.0781 80.7646 79.3961 82.2513 80.3911C83.1499 80.9947 84.0893 81.6145 84.3344 81.7613C85.0369 82.2017 87.0056 83.5229 87.6836 84.0122C88.0186 84.2569 88.7129 84.7626 89.2276 85.1296C90.2405 85.8717 91.4087 86.8178 93.5734 88.6365C94.3577 89.2971 95.5666 90.2595 96.261 90.7896C96.9554 91.3115 97.8049 91.9722 98.1399 92.2494C100.394 94.1252 100.991 94.6227 101.865 95.3241C102.396 95.7564 103.482 96.629 104.267 97.2489C105.051 97.8768 106.154 98.8147 106.717 99.3449C107.281 99.875 108.49 100.952 109.413 101.743C110.336 102.526 111.733 103.724 112.517 104.393C113.301 105.062 114.519 106.122 115.213 106.734C116.471 107.843 117.051 108.341 119.959 110.787C122.107 112.598 123.218 113.65 126.96 117.45C128.773 119.285 130.685 121.226 131.208 121.757C131.73 122.295 132.368 122.98 132.613 123.29C132.858 123.6 133.242 124.048 133.454 124.293L133.846 124.742L133.609 125.149C133.487 125.378 132.825 126.136 132.147 126.846C131.469 127.555 130.807 128.265 130.685 128.42C130.17 129.048 129.484 129.806 129.411 129.806C129.321 129.806 128.324 129.088 127.523 128.444C126.813 127.865 125.71 127.123 124.158 126.152C123.08 125.484 121.732 124.456 119.665 122.727C118.431 121.699 118.072 121.381 115.801 119.351C114.976 118.625 113.963 117.728 113.546 117.369C113.13 117.01 112.199 116.162 111.48 115.493C110.761 114.816 109.462 113.625 108.588 112.834C107.714 112.051 106.366 110.82 105.582 110.102C104.798 109.393 103.752 108.455 103.254 108.031C102.404 107.313 101.938 106.897 99.1446 104.401C95.2889 100.952 94.3822 100.136 93.4427 99.2633C92.4298 98.3172 89.5216 95.6503 86.9076 93.2689C85.6087 92.0863 82.9375 89.346 81.5243 87.7638C78.6488 84.5179 76.9823 82.5198 76.1654 81.3127C76.0184 81.0925 75.5773 80.5298 75.1852 80.0568C74.4745 79.1923 72.2362 76.1991 71.6072 75.2775C71.2641 74.7637 71.1089 74.6414 70.8965 74.723C70.7576 74.7801 70.7249 75.2041 70.8556 75.2857C70.8965 75.3102 71.6807 76.3296 72.5956 77.553C73.5105 78.7763 74.4908 80.0404 74.7686 80.3748C75.0463 80.7092 75.5773 81.4024 75.9449 81.9162C76.5821 82.8134 79.2288 86.0104 80.544 87.4784C83.3868 90.6428 85.5842 92.9101 87.2343 94.3699C87.6428 94.7288 88.4107 95.4301 88.9498 95.9195C89.489 96.417 90.4856 97.3141 91.1554 97.9176C91.8335 98.5211 92.8382 99.4346 93.4019 99.9565C94.6436 101.09 97.2086 103.357 98.9404 104.834C100.533 106.204 103.033 108.447 104.267 109.621C104.781 110.11 106.211 111.456 107.444 112.598C108.678 113.74 110.238 115.191 110.908 115.819C111.578 116.447 112.501 117.271 112.958 117.646C113.416 118.029 114.077 118.6 114.437 118.91C114.796 119.228 115.482 119.816 115.948 120.223C116.422 120.623 117.1 121.235 117.459 121.577C118.35 122.425 119.804 123.657 120.711 124.342C121.127 124.644 121.977 125.345 122.606 125.883C127.254 129.88 127.099 129.757 127.981 130.222L128.545 130.516L128.185 130.785C127.662 131.193 126.976 131.87 126.976 131.984C126.976 132.041 126.96 132.09 126.935 132.09C126.837 132.09 125.718 131.364 124.779 130.687C124.215 130.271 123.586 129.831 123.382 129.692C122.908 129.382 121.421 128.248 120.89 127.808C120.67 127.62 120.31 127.359 120.09 127.221C119.265 126.715 117.41 124.994 114.11 121.699C112.223 119.807 109.209 116.847 107.403 115.11C105.606 113.381 103.899 111.709 103.613 111.399C103.327 111.097 102.723 110.494 102.265 110.07C100.648 108.553 98.3277 106.416 97.4046 105.592C95.7382 104.1 90.7388 99.1491 89.2112 97.4691C86.5155 94.5167 85.6251 93.5788 83.4358 91.3523C79.8823 87.7475 77.7747 85.4721 76.0756 83.4006C75.6835 82.9275 75.0218 82.1609 74.597 81.6879C72.8162 79.6979 71.6154 77.9526 70.7249 76.0605C70.5697 75.7261 70.1449 74.8535 69.7855 74.1276C69.0912 72.733 69.034 72.472 69.4261 72.472C69.5404 72.472 69.7692 72.5209 69.9326 72.5862ZM92.8301 84.159C93.6143 84.9012 94.5129 85.7168 94.8233 85.9778C95.1337 86.2469 95.9016 86.9401 96.5387 87.5192C97.6171 88.5142 98.679 89.4113 99.7655 90.235C100.019 90.4226 100.501 90.7896 100.836 91.0506C101.171 91.3034 101.816 91.7683 102.265 92.0863C102.714 92.3962 103.54 92.9998 104.103 93.4157C104.667 93.8316 105.565 94.4922 106.105 94.8919C107.142 95.6503 109.527 97.2407 111.823 98.7006C112.591 99.1817 113.595 99.8668 114.069 100.209C114.543 100.56 115.442 101.204 116.071 101.637C116.7 102.077 117.37 102.558 117.557 102.705C117.941 103.007 119.191 103.879 121.103 105.168C123.553 106.824 123.913 107.076 124.182 107.305C124.329 107.435 124.771 107.761 125.163 108.022C125.555 108.292 126.02 108.642 126.2 108.805C126.551 109.132 126.551 109.132 125.318 108.398C124.052 107.655 122.777 107.109 122.189 107.068C121.764 107.036 121.601 107.076 120.964 107.329C120.531 107.509 120.147 107.729 120.016 107.876C119.812 108.088 119.788 108.177 119.788 108.642C119.788 108.985 119.853 109.344 119.984 109.694L120.171 110.224L119.665 109.8C118.227 108.593 116.201 106.873 115.703 106.44C115.393 106.171 114.502 105.396 113.726 104.728C112.95 104.051 111.798 103.048 111.161 102.485C110.532 101.922 109.413 100.952 108.67 100.324C107.934 99.6955 107.256 99.1083 107.167 99.0186C106.235 98.0481 99.3325 92.3228 96.4652 90.129C95.9342 89.7212 94.8559 88.8485 94.0636 88.1879C92.2909 86.7036 90.7797 85.4721 90.3222 85.1459C89.9954 84.9175 88.1084 83.5066 87.9941 83.4087C87.9614 83.3843 88.2146 83.3598 88.5577 83.3598H89.1786L89.5053 82.9928C89.8566 82.5932 90.1261 82.0794 90.1343 81.7939C90.1343 81.6553 90.2487 81.7287 90.7715 82.218C91.1146 82.5524 92.0458 83.425 92.8301 84.159ZM163.434 118.984C164.251 119.799 165.346 120.965 165.868 121.569C166.391 122.173 167.38 123.257 168.066 123.975C169.953 125.949 170.1 126.104 170.933 127.074C171.717 127.987 174.617 131.592 175.222 132.416C175.859 133.28 176.978 134.961 177.191 135.376C177.305 135.613 177.46 135.89 177.542 136.004C177.615 136.119 177.836 136.632 178.032 137.146C178.228 137.66 178.449 138.223 178.53 138.386C178.62 138.557 178.685 138.712 178.685 138.737C178.685 138.834 178.44 138.761 177.787 138.451C177.403 138.272 177.035 138.125 176.97 138.125C176.905 138.125 176.627 137.994 176.365 137.831C175.884 137.546 175.532 137.391 174.519 137.024C173.686 136.722 172.616 136.233 171.399 135.605C170.647 135.222 170.182 135.026 170.002 135.026C169.814 135.026 169.259 134.789 168.278 134.3C167.486 133.892 166.734 133.493 166.612 133.411C166.261 133.158 165.444 132.767 164.659 132.473C164.267 132.326 163.54 131.943 163.042 131.625C162.552 131.315 162.013 130.989 161.857 130.907C161.702 130.826 161.13 130.467 160.591 130.1C160.052 129.733 159.276 129.219 158.859 128.958L158.108 128.493L158.41 128.151C158.574 127.963 159.064 127.457 159.488 127.033C160.436 126.087 161.179 125.247 161.817 124.383C162.078 124.024 162.446 123.559 162.634 123.347C163.508 122.344 163.663 122.132 163.818 121.74C164.03 121.194 164.03 120.631 163.818 120.28C163.687 120.068 162.356 118.258 161.833 117.589C161.784 117.524 161.784 117.491 161.849 117.491C161.906 117.491 162.617 118.16 163.434 118.984ZM169.185 123.42C171.064 124.986 172.853 126.715 174.666 128.705C176.047 130.222 177.918 132.53 178.432 133.354C179.347 134.806 180.532 136.526 181.128 137.269C181.487 137.717 181.978 138.451 182.206 138.9C182.443 139.348 182.778 139.919 182.95 140.172C183.121 140.417 183.481 141.11 183.75 141.705C184.02 142.301 184.363 142.994 184.51 143.247C185.229 144.454 185.384 144.796 185.384 145.171C185.384 145.375 185.351 145.547 185.302 145.547C184.976 145.547 182.051 144.136 180.115 143.035C179.715 142.806 179.167 142.545 178.914 142.447C178.653 142.35 178.122 142.064 177.73 141.803C177.329 141.55 176.66 141.143 176.235 140.906C174.822 140.107 173.564 139.34 171.162 137.815C170.141 137.163 167.96 135.874 167.167 135.45C166.783 135.246 166.105 134.822 165.656 134.496C164.676 133.794 163.205 132.775 162.29 132.147C161.645 131.715 159.488 129.986 159.488 129.912C159.488 129.888 159.717 130.043 160.003 130.247C161.563 131.388 163.745 132.718 164.635 133.068C165.109 133.256 165.803 133.607 166.187 133.843C166.571 134.08 167.233 134.455 167.657 134.683C168.082 134.903 168.679 135.213 168.981 135.376C169.283 135.54 169.708 135.695 169.92 135.727C170.173 135.76 170.598 135.947 171.088 136.233C171.905 136.706 173.024 137.228 174.193 137.676C175.197 138.068 175.565 138.231 176.104 138.565C176.374 138.728 176.651 138.859 176.717 138.859C176.79 138.859 177.019 138.949 177.231 139.063C177.722 139.324 178.963 139.764 179.355 139.813C179.609 139.846 179.674 139.821 179.788 139.65C179.903 139.471 179.911 139.414 179.813 139.234C179.756 139.128 179.519 138.696 179.282 138.272C179.053 137.856 178.743 137.22 178.604 136.861C178.465 136.502 178.269 136.078 178.179 135.923C178.081 135.768 177.869 135.401 177.705 135.107C177.174 134.194 175.589 131.935 174.397 130.418C171.333 126.511 170.639 125.688 168.474 123.371C167.78 122.629 167.151 121.944 167.086 121.863C166.816 121.512 167.51 122.026 169.185 123.42Z" fill="#1E2022"/>
<path d="M87.087 57.5556C86.7929 57.7269 86.9318 58.0205 87.7078 58.9095C88.6636 60.0105 89.0149 60.4427 90.0115 61.7477C90.4526 62.3267 90.9182 62.9384 91.0407 63.0933C91.1715 63.2483 91.5227 63.6887 91.825 64.072C92.454 64.8631 93.4342 66.0049 96.808 69.8625C97.339 70.466 98.3601 71.5752 99.079 72.3418C99.7978 73.1003 100.786 74.1687 101.276 74.707C101.758 75.2534 102.592 76.1179 103.114 76.6317C103.637 77.1455 105.238 78.7603 106.676 80.2039C108.114 81.6556 109.625 83.1399 110.025 83.4987C110.434 83.8657 111.292 84.6813 111.945 85.3175C112.599 85.9454 113.718 87.0138 114.437 87.6826C115.155 88.3514 116.977 90.0722 118.48 91.5157C119.983 92.9593 121.674 94.5496 122.238 95.039C122.802 95.5365 125.358 98.0076 127.915 100.536C130.48 103.064 132.792 105.315 133.062 105.543C133.331 105.764 133.919 106.277 134.369 106.685C135.382 107.599 135.864 108.006 136.86 108.757C137.653 109.352 138.584 110.135 139.556 111.008C140.528 111.889 142.358 113.006 142.832 113.006C142.954 113.006 143.093 112.957 143.142 112.892C143.232 112.778 143.183 112.517 143.069 112.517C142.954 112.517 140.7 110.975 139.05 109.768C138.135 109.099 137.212 108.431 136.983 108.276C135.766 107.452 133.045 104.964 130.129 101.996C126.706 98.5133 123.463 95.3326 122.32 94.3131C121.119 93.2447 118.104 90.4229 116.193 88.5797C115.45 87.862 113.889 86.3777 112.729 85.2767C109.78 82.4874 106.006 78.7848 104.569 77.2678C103.899 76.5665 103.302 75.9711 103.245 75.9548C103.196 75.9303 102.804 75.5307 102.387 75.0658C101.971 74.6091 100.884 73.4347 99.9776 72.4723C99.0708 71.51 97.9843 70.3192 97.5596 69.8299C97.1348 69.3406 96.5384 68.6555 96.2199 68.3129C95.9094 67.9704 95.3703 67.3669 95.0354 66.9591C94.7004 66.5595 94.0387 65.7928 93.5649 65.2546C93.0912 64.7163 92.5357 64.0557 92.3233 63.7866C91.3022 62.498 90.8038 61.8537 90.2974 61.1768C89.9951 60.769 89.5377 60.1818 89.2844 59.8719C89.0312 59.5538 88.5247 58.9258 88.1653 58.4609C87.4546 57.5556 87.3075 57.4333 87.087 57.5556Z" fill="#1E2022"/>
<path d="M101.775 40.2246C101.546 40.4529 101.685 40.7955 102.314 41.5132C102.625 41.872 103.205 42.5979 103.589 43.1117C103.981 43.6255 104.593 44.4084 104.953 44.857C105.321 45.2974 105.745 45.8194 105.9 46.0151C106.056 46.2027 106.333 46.5371 106.513 46.7573C106.693 46.9693 107.281 47.6788 107.82 48.3313C109.781 50.6964 111.031 52.1155 112.885 54.081C113.653 54.8884 114.674 56.0058 115.164 56.5685C116.21 57.7674 119.878 61.4211 121.952 63.3377C125.8 66.8854 130.473 71.4118 134.394 75.3591C135.554 76.5172 136.755 77.6916 137.073 77.9689C137.392 78.2381 138.143 78.9068 138.748 79.4451C140.382 80.9049 141.002 81.4351 141.721 82.0141C142.391 82.5524 144.303 84.2569 145.479 85.3579C146.41 86.2306 148.714 88.1879 149.318 88.6202C149.841 88.9953 152.398 91.0343 153.199 91.7193C154.024 92.4207 156.131 93.8153 157.226 94.3862C157.716 94.6391 159.121 95.1366 159.178 95.0795C159.211 95.0468 158.86 94.8022 158.41 94.533C157.953 94.2639 157.299 93.848 156.964 93.6033C156.621 93.3586 155.976 92.9101 155.527 92.6165C154.71 92.07 154.506 91.9069 151.892 89.8028C151.116 89.1748 150.135 88.4 149.719 88.0901C148.943 87.5029 146.966 85.8473 144.458 83.686C143.682 83.0091 142.612 82.1201 142.097 81.696C141.574 81.272 140.439 80.3014 139.565 79.5348C138.699 78.7682 137.8 77.9852 137.563 77.7895C137.335 77.5938 134.688 74.9921 131.673 71.999C125.816 66.1677 124.803 65.189 121.83 62.3998C119.371 60.1081 116.471 57.2128 115.376 55.9568C114.903 55.4186 113.971 54.3909 113.293 53.6732C111.758 52.034 110.189 50.2397 108.637 48.3395C107.118 46.4881 106.162 45.3056 105.149 44.0251C104.659 43.4053 103.883 42.3369 102.919 40.9586C102.306 40.0778 102.069 39.931 101.775 40.2246Z" fill="#1E2022"/>
<path d="M172.135 97.6831C172.053 97.7238 171.987 97.8135 171.987 97.8788C171.987 97.944 171.84 98.1561 171.661 98.3681C171.481 98.572 171.244 98.9064 171.122 99.1021C170.991 99.3223 170.582 99.7383 170.084 100.146C169.137 100.929 168.802 101.288 168.393 101.957C168.213 102.258 167.903 102.593 167.535 102.878C166.694 103.547 166.433 103.808 166.433 103.971C166.433 104.183 166.588 104.469 167.339 105.667C169.782 109.582 173.017 113.081 175.541 114.549C175.86 114.736 176.848 115.258 177.747 115.707C178.653 116.164 179.617 116.718 179.911 116.947C180.205 117.175 180.777 117.624 181.178 117.95C182.003 118.602 184.078 120.119 185.907 121.383C186.577 121.848 187.361 122.427 187.664 122.656C187.958 122.892 188.44 123.259 188.734 123.471C189.779 124.238 190.792 124.996 191.977 125.91C193.047 126.733 193.913 127.329 197.385 129.604C198.275 130.183 198.463 130.224 198.52 129.824C198.561 129.563 198.169 128.177 197.76 127.158C197.573 126.66 197.238 125.779 197.025 125.2C196.511 123.797 196.257 123.259 194.836 120.527C192.851 116.726 191.977 115.364 190.008 113.008C189.093 111.915 188.456 111.189 187.819 110.496C187.525 110.169 187.043 109.533 186.765 109.068C184.633 105.61 181.668 102.348 179.078 100.611C177.992 99.8851 175.467 98.6128 174.291 98.2132C173.858 98.0582 173.335 97.8625 173.131 97.7646C172.731 97.5852 172.355 97.5526 172.135 97.6831ZM174.234 98.6699C175.231 98.9961 177.804 100.268 178.809 100.945C181.472 102.723 184.903 106.556 186.798 109.868C187.394 110.912 188.742 114.157 189.33 115.992C189.608 116.857 190.172 119.516 190.09 119.597C190.065 119.614 189.747 119.556 189.371 119.467C188.995 119.377 188.415 119.255 188.08 119.206C186.479 118.953 184.6 118.439 182.991 117.819C181.954 117.412 176.922 114.94 175.794 114.272C174.471 113.497 173.482 112.698 171.857 111.083C169.7 108.954 168.891 107.869 167.674 105.48L166.939 104.028L167.707 103.416C168.132 103.082 168.622 102.609 168.793 102.373C169.104 101.957 170.141 101.035 170.942 100.456C171.162 100.301 171.448 99.9748 171.62 99.7057C171.906 99.2408 172.551 98.6536 172.772 98.6536C172.837 98.6536 172.927 98.5802 172.984 98.4905C173.098 98.311 173.147 98.311 174.234 98.6699ZM189.444 113.228C190.106 114.027 190.841 114.932 191.07 115.25C192.124 116.71 192.336 117.036 192.761 117.746C193.006 118.17 193.562 119.189 194.003 120.021C194.444 120.853 194.942 121.75 195.106 122.019C195.767 123.104 196.192 123.969 196.658 125.249C196.935 125.983 197.262 126.848 197.393 127.158C197.63 127.728 198.161 129.555 198.112 129.604C198.095 129.621 197.605 129.327 197.025 128.952C196.437 128.577 195.4 127.908 194.705 127.476C193.635 126.791 192.336 125.861 189.551 123.773C187.312 122.093 186.52 121.506 186.161 121.277C185.94 121.131 185.425 120.772 185.017 120.478C184.617 120.176 183.988 119.736 183.628 119.483C182.967 119.018 181.578 117.95 181.055 117.501L180.769 117.257L181.545 117.583C183.35 118.358 185.875 119.132 188.186 119.605C188.628 119.703 189.248 119.866 189.559 119.981C190.678 120.38 190.809 120.258 190.49 119.157C190.368 118.725 190.147 117.852 190 117.216C189.722 116.033 189.093 114.1 188.505 112.616C188.325 112.159 188.186 111.784 188.203 111.784C188.219 111.784 188.783 112.437 189.444 113.228Z" fill="#1E2022"/>
<path d="M140.757 130.224C140.675 130.273 140.504 130.477 140.373 130.673C140.25 130.877 139.997 131.146 139.818 131.268C139.638 131.399 139.409 131.627 139.303 131.782C139.205 131.929 138.943 132.247 138.723 132.484C138.51 132.72 138.102 133.307 137.824 133.78C137.498 134.319 137.146 134.783 136.877 135.036C136.64 135.248 136.248 135.697 135.994 136.023C135.749 136.349 135.447 136.667 135.333 136.733C135.129 136.839 135.096 136.83 134.883 136.586C134.761 136.447 134.598 136.333 134.532 136.333C134.254 136.333 134.32 136.602 134.802 137.336C135.063 137.744 135.529 138.551 135.823 139.114C137.097 141.577 139.523 145.141 141.182 147.009C142.619 148.624 146.786 152.179 149.931 154.471C150.355 154.781 150.895 155.173 151.115 155.344C151.744 155.801 152.055 155.98 153.803 156.885C154.701 157.35 155.641 157.856 155.894 158.019C157.136 158.818 162.445 161.2 164.676 161.958C165.084 162.097 165.721 162.333 166.105 162.48C166.938 162.806 167.674 163.002 168.041 163.002C168.368 163.002 168.515 162.774 168.441 162.358C168.384 162.007 167.347 158.834 167.061 158.149C166.538 156.893 166.326 156.429 165.721 155.254C165.37 154.561 164.912 153.623 164.725 153.174C164.136 151.804 162.789 149.292 162.021 148.151C160.542 145.908 158.214 143.184 156.662 141.854C155.665 141.006 154.644 140.142 153.68 139.342C153.215 138.951 152.537 138.29 152.169 137.866C151.442 137.026 149.302 134.963 148.46 134.286C147.259 133.324 146.042 132.606 144.743 132.092C143.861 131.741 143.044 131.317 142.276 130.812C141.656 130.412 141.125 130.135 140.969 130.135C140.937 130.135 140.839 130.175 140.757 130.224ZM142.497 131.701C143.281 132.084 144.212 132.516 144.564 132.655C145.503 133.03 146.116 133.356 147.055 133.984C148.501 134.955 150.739 136.977 151.891 138.356C153.084 139.775 155.191 143.225 156.515 145.916C156.98 146.854 157.569 147.996 157.822 148.444C158.72 150.018 158.843 150.279 159.317 151.519C159.774 152.726 160.052 153.721 160.207 154.7C160.273 155.107 160.264 155.173 160.15 155.173C160.003 155.173 156.972 154.284 153.876 153.338C151.989 152.758 150.968 152.343 148.338 151.103C147.398 150.662 146.344 149.986 145.315 149.17C144.351 148.412 140.634 144.733 139.875 143.795C139.303 143.086 137.734 140.786 136.942 139.473C136.607 138.935 136.199 138.307 136.027 138.07L135.717 137.646L136.019 137.132C136.419 136.439 136.55 136.268 137.277 135.493C137.612 135.126 138.094 134.474 138.347 134.049C138.796 133.283 139.523 132.369 140.046 131.888C140.193 131.75 140.471 131.489 140.651 131.293C140.83 131.105 141.002 130.958 141.027 130.975C141.051 130.983 141.713 131.309 142.497 131.701ZM155.853 141.944C157.748 143.592 160.134 146.316 161.571 148.485C162.143 149.349 163.736 152.13 163.736 152.269C163.736 152.302 163.916 152.701 164.782 154.602C164.855 154.757 165.109 155.254 165.354 155.703C166.171 157.187 166.979 159.25 167.543 161.248C167.698 161.787 167.821 162.252 167.821 162.284C167.821 162.415 167.478 162.341 166.701 162.056C166.26 161.893 165.623 161.681 165.288 161.583C164.953 161.477 164.365 161.265 163.981 161.102C163.597 160.939 162.74 160.588 162.062 160.327C159.48 159.299 157.152 158.198 155.935 157.407C155.575 157.179 154.66 156.665 153.893 156.265C152.283 155.434 151.965 155.238 150.584 154.243C148.705 152.889 147.799 152.155 145.764 150.328C144.31 149.023 144 148.73 144.098 148.73C144.131 148.73 144.278 148.836 144.417 148.966C145.413 149.912 147.235 151.095 148.624 151.706C149.048 151.894 149.882 152.277 150.478 152.546C151.074 152.824 152.014 153.191 152.561 153.37C153.893 153.802 155.355 154.243 155.812 154.357C156.017 154.406 157.168 154.765 158.369 155.148C160.869 155.955 160.844 155.955 160.82 155.246C160.804 154.626 160.313 152.807 159.815 151.502C159.023 149.415 155.624 142.809 154.293 140.778C154.146 140.558 154.17 140.566 154.587 140.892C154.832 141.08 155.404 141.561 155.853 141.944Z" fill="#1E2022"/>
</svg>
