<svg width="122" height="122" viewBox="0 0 122 122" fill="none" xmlns="http://www.w3.org/2000/svg">
<path d="M103.757 15.4109L9.01521 54.0244C7.21279 54.759 7.14733 57.3819 8.91051 58.2124L29.8552 68.0788C30.4225 68.3464 30.8533 68.8514 31.0399 69.4684L40.026 99.1547C40.48 100.653 42.2258 101.235 43.4345 100.289L59.0758 88.0564C59.8227 87.4723 60.8443 87.4448 61.6196 87.9876L87.8524 106.359C89.161 107.275 90.9453 106.498 91.2321 104.887L106.712 17.9412C107.024 16.1863 105.357 14.7588 103.757 15.4109ZM46.3459 72.2894L43.5196 88.9682L36.2238 65.0872L86.2427 32.8595L46.3459 72.2894Z" fill="#FCFCFC"/>
</svg>
