<svg width="123" height="122" viewBox="0 0 123 122" fill="none" xmlns="http://www.w3.org/2000/svg">
<path d="M114.875 25.2988C110.863 26.9787 106.62 28.0892 102.278 28.5958C106.859 25.9547 110.292 21.7997 111.939 16.9016C107.635 19.3747 102.923 21.1172 98.0085 22.0533C94.7235 18.6149 90.349 16.3262 85.5711 15.546C80.7932 14.7658 75.8821 15.5383 71.6081 17.7423C67.3341 19.9463 63.9389 23.4572 61.955 27.7244C59.9711 31.9915 59.5107 36.7735 60.646 41.3204C51.9428 40.8955 43.4296 38.7083 35.6593 34.9007C27.8891 31.0932 21.0356 25.7506 15.5441 19.2199C13.618 22.4663 12.6059 26.1427 12.6085 29.8837C12.6017 33.3579 13.485 36.7798 15.1799 39.8448C16.8747 42.9097 19.3285 45.5226 22.3227 47.4508C18.8426 47.3594 15.4368 46.4581 12.395 44.8235V45.0811C12.4211 49.9488 14.1884 54.6585 17.3979 58.4133C20.6075 62.1682 25.0623 64.7379 30.0087 65.6876C28.1046 66.2469 26.1277 66.5418 24.1375 66.5634C22.7598 66.5479 21.3856 66.4273 20.0276 66.2028C21.4362 70.3901 24.1622 74.0495 27.8261 76.6718C31.4901 79.294 35.9098 80.7487 40.4703 80.8335C32.7693 86.6819 23.2615 89.8738 13.4625 89.9004C11.6784 89.906 9.89564 89.8028 8.125 89.5913C18.1298 95.8261 29.7889 99.1358 41.6979 99.1218C49.916 99.2042 58.0687 97.7052 65.6799 94.7124C73.291 91.7196 80.2081 87.293 86.0269 81.6912C91.8457 76.0894 96.4498 69.4246 99.57 62.0862C102.69 54.7477 104.264 46.8828 104.2 38.9506C104.2 38.0749 104.2 37.1476 104.2 36.2203C108.388 33.2056 112.001 29.5099 114.875 25.2988Z" fill="#FCFCFC"/>
</svg>
