<svg width="212" height="212" viewBox="0 0 212 212" fill="none" xmlns="http://www.w3.org/2000/svg">
<rect width="212" height="212" fill="#F7F7FC"/>
<path d="M153.884 69.2908C142.301 60.2795 123.975 58.7523 123.189 58.6989C122.592 58.6514 121.994 58.7845 121.479 59.0798C120.964 59.3751 120.557 59.818 120.314 60.347C119.964 61.107 119.667 61.8888 119.426 62.687C127.089 63.9386 136.501 66.4558 145.016 71.5633C145.341 71.7581 145.623 72.0128 145.846 72.313C146.069 72.6131 146.229 72.9528 146.316 73.3125C146.403 73.6723 146.416 74.0451 146.354 74.4097C146.292 74.7743 146.157 75.1235 145.955 75.4375C145.753 75.7514 145.49 76.0239 145.179 76.2394C144.869 76.4549 144.517 76.6091 144.145 76.6934C143.773 76.7776 143.387 76.7901 143.01 76.7303C142.632 76.6704 142.271 76.5393 141.946 76.3445C127.307 67.5611 109.024 67.1251 105.5 67.1251C101.979 67.1251 83.6842 67.5639 69.054 76.3417C68.7291 76.5365 68.3677 76.6676 67.9905 76.7275C67.6132 76.7873 67.2274 76.7748 66.8551 76.6905C66.1033 76.5204 65.4522 76.0687 65.045 75.4347C64.6379 74.8006 64.508 74.0362 64.684 73.3097C64.86 72.5831 65.3275 71.9539 65.9836 71.5604C74.4992 66.467 83.9112 63.9386 91.5741 62.6983C91.1317 61.3033 90.7301 60.423 90.701 60.347C90.4588 59.8142 90.0495 59.3685 89.5309 59.0727C89.0124 58.777 88.4107 58.6462 87.811 58.6989C87.0252 58.7551 68.6989 60.2795 56.9558 69.4117C50.8295 74.8904 38.5625 106.928 38.5625 134.625C38.5625 135.12 38.6993 135.593 38.9496 136.02C47.407 150.392 70.4975 154.147 75.7594 154.312H75.8496C76.3088 154.314 76.7618 154.21 77.1715 154.009C77.5812 153.809 77.936 153.518 78.207 153.159L83.5241 146.083C69.1675 142.503 61.8335 136.417 61.4144 136.054C60.8355 135.56 60.4833 134.864 60.4352 134.119C60.3872 133.375 60.6473 132.642 61.1583 132.083C61.6692 131.523 62.3893 131.183 63.1599 131.136C63.9306 131.09 64.6888 131.341 65.2677 131.835C65.4364 131.99 78.9433 143.062 105.5 143.062C132.1 143.062 145.607 131.945 145.744 131.835C146.325 131.345 147.083 131.097 147.852 131.147C148.622 131.196 149.339 131.539 149.848 132.099C150.099 132.376 150.292 132.697 150.415 133.045C150.538 133.394 150.589 133.762 150.564 134.129C150.54 134.496 150.441 134.855 150.273 135.185C150.105 135.516 149.872 135.811 149.586 136.054C149.167 136.417 141.833 142.503 127.476 146.083L132.796 153.159C133.067 153.517 133.421 153.808 133.83 154.009C134.239 154.209 134.692 154.313 135.15 154.312H135.238C140.505 154.147 163.593 150.389 172.053 136.02C172.301 135.593 172.438 135.12 172.438 134.625C172.438 106.928 160.17 74.8932 153.884 69.2908ZM86.5829 123.375C80.9543 123.375 76.3967 118.341 76.3967 112.125C76.3967 105.909 80.9543 100.875 86.5829 100.875C92.2114 100.875 96.769 105.909 96.769 112.125C96.769 118.341 92.2114 123.375 86.5829 123.375ZM124.417 123.375C118.789 123.375 114.231 118.341 114.231 112.125C114.231 105.909 118.789 100.875 124.417 100.875C130.046 100.875 134.603 105.909 134.603 112.125C134.603 118.341 130.046 123.375 124.417 123.375Z" fill="#200E32"/>
</svg>
