<svg width="212" height="212" viewBox="0 0 212 212" fill="none" xmlns="http://www.w3.org/2000/svg">
<rect width="212" height="212" fill="#F7F7FC"/>
<circle cx="105.5" cy="106.5" r="53.5" fill="#121314"/>
<path d="M143.332 68.6896C133.222 58.569 119.792 53 105.505 53C76.0003 53 52 77.0217 52 106.548C52 136.075 76.0003 160.096 105.505 160.096C119.792 160.096 133.233 154.527 143.332 144.407C153.442 134.286 159 120.846 159 106.548C159 92.2508 153.442 78.7995 143.332 68.6896ZM105.505 156.391C78.0458 156.391 55.7055 134.029 55.7055 106.548C55.7055 79.0673 78.0458 56.7055 105.505 56.7055C132.965 56.7055 155.305 79.0673 155.305 106.548C155.305 134.029 132.965 156.391 105.505 156.391Z" fill="#FCFCFC"/>
<path d="M123.069 107.812C119.642 104.749 115.155 102.704 110.807 100.723L110.775 100.712C103.106 97.2097 96.4772 94.1789 96.9484 87.0142C97.1519 84.2832 99.1332 82.6339 100.761 81.745C102.592 80.7383 105.023 80.1386 107.273 80.1386C107.54 80.1386 107.808 80.1493 108.065 80.16C114.609 80.5991 119.771 83.3729 124.815 89.1347L125.115 89.4881L125.468 89.1882L127.439 87.4747L127.792 87.1641L127.482 86.8107C121.859 80.3635 115.755 77.1185 108.29 76.6151C107.969 76.583 107.626 76.5723 107.251 76.5723C107.026 76.5723 106.78 76.5723 106.523 76.583H106.202C101.307 76.583 95.9417 78.1894 91.8613 80.8882C86.9884 84.1119 84.2575 88.5456 84.1825 93.3757C83.9897 105.124 93.5963 109.076 102.068 112.578L102.089 112.589L102.175 112.621C109.671 115.727 116.14 118.404 116.001 125.58C115.937 130.313 109.168 132.926 104.52 132.926H104.327H103.867V132.937C96.9377 132.734 90.7475 129.746 85.4677 124.08L85.1464 123.738L84.8037 124.048L82.8867 125.826L82.5439 126.147L82.8652 126.49C88.8626 132.948 96.263 136.418 104.274 136.514H104.638C109.811 136.514 115.433 135.122 119.674 132.776C124.986 129.874 128.081 125.644 128.403 120.867C128.767 115.62 127.021 111.346 123.069 107.812ZM98.2014 97.5953C101.254 100.208 105.388 102.083 109.382 103.893L109.457 103.925C113.688 105.874 117.693 107.716 120.595 110.275C123.808 113.103 125.168 116.38 124.879 120.589C124.611 124.755 121.516 127.539 118.7 129.221C119.246 128.107 119.546 126.897 119.578 125.612C119.642 121.285 117.982 117.826 114.491 115.02C111.439 112.567 107.39 110.907 103.471 109.29C95.3205 105.938 87.6203 102.768 87.7595 93.4078C87.8024 89.8094 89.9657 86.4037 93.8533 83.8227C93.9818 83.737 94.1104 83.6513 94.2496 83.5657C93.7891 84.5724 93.532 85.6219 93.4678 86.725C93.1572 91.0624 94.7101 94.618 98.2014 97.5953Z" fill="#FCFCFC"/>
</svg>
