<svg width="212" height="212" viewBox="0 0 212 212" fill="none" xmlns="http://www.w3.org/2000/svg">
<rect width="212" height="212" fill="#F7F7FC"/>
<path d="M127 159.249C127 151.126 127 138.448 127 138.448C127.202 135.885 126.856 133.309 125.985 130.89C125.113 128.471 123.737 126.265 121.948 124.419C138.825 122.538 156.563 116.142 156.563 86.7945C156.562 79.2901 153.675 72.0734 148.5 66.6382C150.951 60.0727 150.777 52.8156 148.017 46.3745C148.017 46.3745 141.674 44.4932 127 54.3295C114.681 50.9906 101.695 50.9906 89.3754 54.3295C74.7017 44.4932 68.3592 46.3745 68.3592 46.3745C65.5984 52.8156 65.4252 60.0727 67.8754 66.6382C62.6623 72.1137 59.7727 79.3956 59.8129 86.9557C59.8129 116.088 77.5504 122.484 94.4279 124.581C92.6595 126.408 91.2957 128.587 90.4252 130.977C89.5547 133.366 89.197 135.912 89.3754 138.448V159.249" fill="#14142B"/>
<path d="M127 159.249C127 151.126 127 138.448 127 138.448C127.202 135.885 126.856 133.309 125.985 130.89C125.113 128.471 123.737 126.265 121.948 124.419C138.825 122.538 156.563 116.142 156.563 86.7945C156.562 79.2901 153.675 72.0734 148.5 66.6382C150.951 60.0727 150.777 52.8156 148.017 46.3745C148.017 46.3745 141.674 44.4932 127 54.3295C114.681 50.9906 101.695 50.9906 89.3754 54.3295C74.7017 44.4932 68.3592 46.3745 68.3592 46.3745C65.5984 52.8156 65.4252 60.0727 67.8754 66.6382C62.6623 72.1137 59.7727 79.3956 59.8129 86.9557C59.8129 116.088 77.5504 122.484 94.4279 124.581C92.6595 126.408 91.2957 128.587 90.4252 130.977C89.5547 133.366 89.197 135.912 89.3754 138.448V159.249" stroke="#14142B"/>
<path d="M89.375 145C62.5 153.063 62.5 129.688 51.75 127" stroke="#14142B" stroke-width="4" stroke-linecap="round" stroke-linejoin="round"/>
</svg>
