<?xml version="1.0" standalone="no"?>
<!DOCTYPE svg PUBLIC "-//W3C//DTD SVG 20010904//EN"
 "http://www.w3.org/TR/2001/REC-SVG-20010904/DTD/svg10.dtd">
<svg version="1.0" xmlns="http://www.w3.org/2000/svg"
 width="72.000000pt" height="72.000000pt" viewBox="0 0 72.000000 72.000000"
 preserveAspectRatio="xMidYMid meet">
<metadata>
Created by potrace 1.14, written by Peter Selinger 2001-2017
</metadata>
<g transform="translate(0.000000,72.000000) scale(0.100000,-0.100000)"
fill="#000000" stroke="none">
<path d="M298 705 c-15 -8 -29 -23 -32 -32 -11 -38 -10 -363 1 -374 18 -18 62
-1 81 31 24 38 23 124 -1 128 -10 2 -17 -2 -18 -10 0 -7 -2 -34 -3 -60 -2 -49
-8 -64 -23 -55 -10 7 -8 330 2 347 12 20 25 -1 25 -41 0 -40 15 -53 27 -22 6
15 7 39 4 88 -1 19 -28 19 -63 0z"/>
<path d="M395 707 c-3 -6 -3 -97 -2 -200 2 -151 5 -190 17 -197 21 -13 22 -9
21 64 0 83 14 86 23 5 9 -76 21 -109 41 -109 10 0 13 8 10 28 -3 15 -11 61
-18 103 -12 64 -12 79 0 94 19 28 9 164 -15 186 -29 26 -72 41 -77 26z m65
-113 c0 -50 -3 -64 -15 -64 -12 0 -15 15 -15 76 0 67 2 75 15 64 10 -9 15 -32
15 -76z"/>
<path d="M183 654 c-17 -7 -35 -19 -39 -25 -3 -6 -8 -98 -11 -205 -3 -181 -3
-194 14 -194 26 0 85 38 78 50 -4 7 -13 7 -24 0 -27 -14 -31 -4 -31 76 0 67 2
75 25 90 32 21 32 38 -1 31 -25 -4 -25 -4 -23 57 3 82 7 92 35 105 13 6 24 15
24 21 0 13 -7 12 -47 -6z"/>
<path d="M519 653 c-3 -30 4 -389 7 -395 5 -7 70 -38 80 -38 2 0 4 6 4 13 0 8
-11 19 -25 25 -24 11 -25 16 -25 92 0 76 1 81 19 75 31 -9 34 11 5 32 -23 17
-26 27 -29 92 -3 72 -3 73 21 67 34 -9 30 10 -6 29 -32 16 -50 19 -51 8z"/>
<path d="M638 587 c21 -23 23 -34 25 -212 1 -129 6 -190 13 -192 18 -6 22 36
20 208 -2 124 0 159 10 159 24 0 4 26 -32 43 -48 24 -61 21 -36 -6z"/>
<path d="M43 585 c-26 -18 -40 -67 -42 -140 -1 -56 5 -71 34 -76 18 -4 20 -13
23 -82 2 -48 -1 -77 -8 -77 -5 0 -10 6 -11 13 -1 24 -10 72 -14 75 -2 2 -9 1
-15 -3 -14 -9 -7 -102 9 -118 16 -16 59 7 71 38 5 14 8 58 7 98 -3 68 -5 73
-35 90 -30 18 -31 19 -26 80 5 64 10 77 24 77 4 0 7 -18 5 -40 -3 -42 6 -58
23 -37 9 10 16 67 13 105 -1 17 -32 15 -58 -3z"/>
<path d="M350 289 c-21 -13 -250 -119 -277 -130 -31 -12 -29 -24 7 -39 35 -14
58 -10 142 29 227 104 221 101 209 115 -18 21 -63 35 -81 25z m40 -28 c0 -12
-118 -63 -133 -58 -7 3 17 19 53 36 69 33 80 36 80 22z m-170 -79 c0 -11 -109
-56 -117 -48 -8 7 -9 6 47 33 48 23 70 28 70 15z"/>
<path d="M401 205 c-40 -19 -111 -52 -157 -71 -46 -20 -84 -40 -84 -44 0 -19
33 -32 69 -27 39 5 256 98 302 129 28 19 20 33 -26 42 -23 5 -48 -2 -104 -29z
m93 -4 c-19 -18 -265 -122 -280 -119 -9 2 51 33 132 70 134 60 176 74 148 49z"/>
<path d="M510 146 c-56 -38 -97 -57 -162 -75 -49 -13 -88 -28 -88 -33 0 -6 10
-8 22 -4 13 4 37 9 53 11 28 5 29 5 8 -6 -24 -13 -31 -29 -11 -29 6 0 45 20
87 44 42 24 113 56 159 71 45 15 82 31 82 36 0 13 -12 11 -53 -6 -49 -20 -57
-18 -28 6 14 11 20 23 15 28 -5 5 -41 -13 -84 -43z"/>
</g>
</svg>
